<svg width="160" height="76" viewBox="0 0 160 76" fill="none" xmlns="http://www.w3.org/2000/svg">
<path d="M143.754 1.43268H16.2476C13.8189 1.43268 11.8424 2.3715 11.8424 3.52514V12.8254C11.8424 13.9791 13.8189 14.9179 16.2476 14.9179H143.753C146.18 14.9179 148.158 13.9791 148.158 12.8254V3.52514C148.159 2.3715 146.183 1.43268 143.754 1.43268Z" fill="#EBEBEB"/>
<path d="M143.754 25.8447H16.2476C13.8189 25.8447 11.8424 26.7835 11.8424 27.9372V37.2374C11.8424 38.3911 13.8189 39.3299 16.2476 39.3299H143.753C146.18 39.3299 148.158 38.3911 148.158 37.2374V27.9372C148.159 26.7835 146.183 25.8447 143.754 25.8447Z" fill="#F4F4F4"/>
<path d="M143.754 50.2567H16.2476C13.8189 50.2567 11.8424 51.1955 11.8424 52.3492V61.6495C11.8424 62.8031 13.8189 63.7419 16.2476 63.7419H143.753C146.18 63.7419 148.158 62.8031 148.158 61.6495V52.3492C148.159 51.1948 146.183 50.2567 143.754 50.2567Z" fill="#FAFAFA"/>
</svg>
