<?xml version="1.0" encoding="UTF-8"?>
<!-- Generator: visioncortex VTracer 0.6.3 -->
<svg version="1.1" xmlns="http://www.w3.org/2000/svg" width="1280" height="131">
    <path d="M0 0 C0.33 0.66 0.66 1.32 1 2 C1.33 1.34 1.66 0.68 2 0 C14.77 -0.09 27.54 -0.16 40.31 -0.21 C46.24 -0.23 52.17 -0.26 58.1 -0.3 C63.82 -0.35 69.55 -0.37 75.27 -0.38 C77.46 -0.39 79.64 -0.4 81.82 -0.42 C84.88 -0.45 87.94 -0.46 91 -0.45 C92.35 -0.48 92.35 -0.48 93.72 -0.5 C100.52 -0.45 106.09 1.09 111 6 C111 6.99 111 7.98 111 9 C111.66 9 112.32 9 113 9 C113 12.67 113 16.33 113 20 C112.34 20 111.68 20 111 20 C110.5 22.48 110.5 22.48 110 25 C108.35 25.33 106.7 25.66 105 26 C105 26.66 105 27.32 105 28 C76.95 28.33 48.9 28.66 20 29 C18.93 39.43 18.93 39.43 22 48 C24.5 48.11 26.97 48.16 29.47 48.17 C30.64 48.18 30.64 48.18 31.84 48.19 C33.54 48.21 35.25 48.22 36.95 48.23 C39.65 48.25 42.35 48.27 45.05 48.29 C52.72 48.37 60.4 48.43 68.07 48.48 C72.76 48.51 77.45 48.55 82.14 48.6 C83.93 48.61 85.71 48.63 87.5 48.63 C90.01 48.65 92.51 48.67 95.01 48.7 C95.75 48.7 96.49 48.7 97.25 48.7 C101.26 48.76 104.38 49.23 108 51 C108 51.66 108 52.32 108 53 C108.66 53 109.32 53 110 53 C110.5 55.47 110.5 55.47 111 58 C111.66 58 112.32 58 113 58 C113.12 65.72 113.2 73.44 113.26 81.16 C113.29 84.74 113.32 88.33 113.38 91.91 C113.43 95.38 113.46 98.84 113.47 102.3 C113.49 104.26 113.53 106.21 113.57 108.17 C113.57 118.11 113.57 118.11 110.78 121.73 C105.17 126.31 100.25 126.29 93.28 126.26 C91.83 126.26 91.83 126.26 90.34 126.27 C87.13 126.28 83.92 126.27 80.71 126.27 C78.48 126.27 76.25 126.27 74.02 126.27 C69.35 126.27 64.68 126.27 60.01 126.26 C54.01 126.25 48.02 126.26 42.02 126.27 C37.42 126.28 32.82 126.27 28.21 126.27 C26 126.27 23.79 126.27 21.58 126.27 C18.49 126.28 15.41 126.27 12.33 126.26 C11.41 126.26 10.49 126.27 9.54 126.27 C8.7 126.27 7.87 126.26 7 126.25 C6.27 126.25 5.55 126.25 4.79 126.25 C3 126 3 126 1 124 C-0.45 123.41 -0.45 123.41 -1.94 122.81 C-5.13 120.92 -6.36 119.53 -7.58 116.02 C-8.55 111.35 -8.18 107.35 -6.03 103.06 C-3.11 99.36 -0.81 98.13 3.88 97.35 C8.94 97 13.99 97.06 19.06 97.1 C20.93 97.09 22.81 97.08 24.68 97.06 C29.59 97.03 34.51 97.04 39.42 97.06 C44.44 97.07 49.46 97.04 54.48 97.01 C64.32 96.97 74.16 96.97 84 97 C84.03 94.02 84.05 91.04 84.06 88.06 C84.08 86.79 84.08 86.79 84.09 85.49 C84.09 84.27 84.09 84.27 84.1 83.04 C84.11 81.91 84.11 81.91 84.11 80.77 C84.19 78.97 84.19 78.97 83 78 C80.57 77.89 78.17 77.85 75.75 77.84 C74.99 77.84 74.23 77.83 73.44 77.83 C71.79 77.82 70.13 77.81 68.48 77.8 C65.85 77.79 63.23 77.77 60.61 77.75 C53.15 77.69 45.69 77.63 38.23 77.6 C33.67 77.58 29.11 77.54 24.55 77.5 C22.81 77.48 21.08 77.47 19.34 77.47 C16.9 77.47 14.47 77.44 12.03 77.42 C10.96 77.42 10.96 77.42 9.87 77.43 C4.11 77.33 -0.83 76.17 -5 72 C-5.33 72 -5.66 72 -6 72 C-8.24 65.71 -8.31 59.83 -8.3 53.19 C-8.31 52.06 -8.31 50.93 -8.31 49.77 C-8.32 47.39 -8.32 45.02 -8.32 42.64 C-8.31 39.01 -8.34 35.39 -8.36 31.76 C-8.36 29.44 -8.36 27.13 -8.36 24.81 C-8.37 23.73 -8.38 22.65 -8.39 21.54 C-8.33 12.3 -6.19 6.86 0 0 Z " fill="#191B1A" transform="translate(754,2)"/>
    <path d="M0 0 C3.78 1.76 6.71 3.37 8.74 7.18 C8.74 7.84 8.74 8.5 8.74 9.18 C9.73 9.51 10.72 9.84 11.74 10.18 C15.9 13.06 18.97 16.62 22.19 20.47 C23.65 22.28 23.65 22.28 25.74 23.18 C25.74 23.84 25.74 24.5 25.74 25.18 C26.4 25.18 27.06 25.18 27.74 25.18 C29.37 26.55 29.37 26.55 30.74 28.18 C30.74 28.84 30.74 29.5 30.74 30.18 C31.73 30.51 32.72 30.84 33.74 31.18 C33.74 31.84 33.74 32.5 33.74 33.18 C34.73 33.51 35.72 33.84 36.74 34.18 C38.45 35.8 40.12 37.47 41.74 39.18 C42.51 39.9 43.27 40.62 44.05 41.36 C45.74 43.18 45.74 43.18 45.74 45.18 C48.51 46.05 48.51 46.05 51.74 46.18 C54.32 44.58 54.32 44.58 56.58 42.07 C57.49 41.15 58.4 40.22 59.33 39.28 C60.31 38.25 61.28 37.23 62.25 36.21 C63.26 35.18 64.27 34.14 65.29 33.11 C67.96 30.4 70.6 27.66 73.24 24.92 C77.48 20.53 81.73 16.17 86 11.82 C87.48 10.29 88.96 8.75 90.43 7.21 C91.33 6.29 92.23 5.37 93.16 4.41 C93.95 3.59 94.74 2.77 95.56 1.93 C97.74 0.18 97.74 0.18 101.74 0.18 C101.74 -0.48 101.74 -1.14 101.74 -1.82 C107.31 -1.47 111.98 -1 116.74 2.18 C118.55 4.74 118.55 4.74 119.74 7.18 C120.07 7.84 120.4 8.5 120.74 9.18 C120.84 10.56 120.89 11.96 120.9 13.35 C120.9 14.22 120.91 15.1 120.92 16 C120.93 17.44 120.93 17.44 120.94 18.91 C120.95 20.43 120.95 20.43 120.96 21.98 C120.98 25.34 121 28.7 121.02 32.06 C121.02 33.21 121.03 34.35 121.03 35.53 C121.06 41.6 121.08 47.68 121.09 53.75 C121.11 60.02 121.15 66.28 121.2 72.55 C121.24 77.37 121.25 82.19 121.26 87.02 C121.26 89.33 121.28 91.64 121.3 93.95 C121.33 97.18 121.33 100.42 121.33 103.66 C121.34 104.61 121.36 105.56 121.38 106.54 C121.32 112.91 119.91 117.27 115.74 122.18 C111.85 124.7 107.27 124.9 102.74 124.18 C98.8 122.09 96.15 119.93 93.74 116.18 C93.41 116.84 93.08 117.5 92.74 118.18 C92.74 95.74 92.74 73.3 92.74 50.18 C91.75 50.18 90.76 50.18 89.74 50.18 C89.25 51.17 89.25 51.17 88.74 52.18 C88.08 52.18 87.42 52.18 86.74 52.18 C86.74 52.84 86.74 53.5 86.74 54.18 C85.33 55.56 85.33 55.56 83.35 57.19 C77.35 62.29 71.95 67.96 66.46 73.59 C65.65 74.41 64.84 75.23 64.01 76.07 C63.28 76.81 62.56 77.55 61.81 78.32 C57.14 82.51 52.91 82.72 46.79 82.62 C41.93 81.91 39.17 79.54 35.74 76.18 C35.21 75.7 34.69 75.22 34.14 74.73 C32.74 73.43 32.74 73.43 30.74 71.18 C30.74 70.52 30.74 69.86 30.74 69.18 C30.08 69.18 29.42 69.18 28.74 69.18 C28.74 68.52 28.74 67.86 28.74 67.18 C28.08 67.18 27.42 67.18 26.74 67.18 C26.74 66.52 26.74 65.86 26.74 65.18 C25.75 64.85 24.76 64.52 23.74 64.18 C22.03 62.55 20.37 60.88 18.74 59.18 C18.14 58.62 17.55 58.06 16.93 57.49 C15.74 56.18 15.74 56.18 15.74 54.18 C14.42 53.52 13.1 52.86 11.74 52.18 C11.74 51.52 11.74 50.86 11.74 50.18 C10.75 49.85 9.76 49.52 8.74 49.18 C8.74 49.97 8.73 50.76 8.72 51.57 C8.67 59.03 8.59 66.49 8.51 73.95 C8.46 77.79 8.42 81.62 8.4 85.45 C8.37 89.16 8.33 92.86 8.28 96.56 C8.26 97.97 8.25 99.38 8.24 100.79 C8.23 102.77 8.21 104.75 8.17 106.73 C8.16 107.86 8.15 108.98 8.14 110.14 C7.7 113.53 6.63 115.37 4.74 118.18 C4.41 119.17 4.08 120.16 3.74 121.18 C-0.69 124.1 -5.03 125.24 -10.26 124.18 C-13.2 122.85 -15.84 121.32 -18.26 119.18 C-18.59 118.19 -18.92 117.2 -19.26 116.18 C-19.92 115.85 -20.58 115.52 -21.26 115.18 C-21.26 79.54 -21.26 43.9 -21.26 7.18 C-20.6 7.18 -19.94 7.18 -19.26 7.18 C-19.15 6.58 -19.05 5.98 -18.95 5.36 C-17.93 2.14 -16.27 0.78 -13.42 -0.92 C-9.05 -2.75 -4.33 -1.58 0 0 Z M84.74 50.18 C83.42 51.83 82.1 53.48 80.74 55.18 C82.06 54.52 83.38 53.86 84.74 53.18 C84.74 52.19 84.74 51.2 84.74 50.18 Z M73.74 61.18 C69.78 65.14 65.82 69.1 61.74 73.18 C62.07 73.84 62.4 74.5 62.74 75.18 C66.7 71.22 70.66 67.26 74.74 63.18 C74.41 62.52 74.08 61.86 73.74 61.18 Z M59.74 76.18 C59.41 76.84 59.08 77.5 58.74 78.18 C59.4 78.18 60.06 78.18 60.74 78.18 C60.41 77.52 60.08 76.86 59.74 76.18 Z " fill="#191B1A" transform="translate(528.2578125,3.82421875)"/>
    <path d="M0 0 C12.87 -0.12 25.73 -0.2 38.6 -0.26 C44.57 -0.29 50.55 -0.32 56.52 -0.38 C62.29 -0.43 68.06 -0.46 73.83 -0.47 C76.03 -0.48 78.23 -0.5 80.42 -0.53 C83.51 -0.57 86.6 -0.57 89.69 -0.57 C90.58 -0.59 91.48 -0.6 92.41 -0.62 C99.12 -0.57 104.49 1.08 110 5 C112.84 8.97 113.38 12.24 113.45 17.06 C113.47 18.24 113.5 19.41 113.52 20.62 C113.53 22.51 113.53 22.51 113.54 24.43 C113.55 25.73 113.56 27.04 113.58 28.38 C113.6 31.14 113.61 33.89 113.61 36.65 C113.62 40.16 113.67 43.67 113.73 47.18 C113.78 50.56 113.78 53.93 113.79 57.3 C113.82 58.56 113.84 59.81 113.87 61.1 C113.82 67.12 113.61 71.07 109.58 75.73 C108.41 76.85 107.22 77.95 106 79 C105.34 79.66 104.68 80.32 104 81 C101.62 81.2 101.62 81.2 98.88 81.12 C97.96 81.11 97.05 81.09 96.12 81.07 C95.42 81.05 94.72 81.02 94 81 C94.76 81.74 95.53 82.48 96.31 83.25 C98.45 85.44 100.2 87.55 102 90 C102.56 90.54 103.11 91.07 103.69 91.62 C105 93 105 93 105 95 C105.66 95 106.32 95 107 95 C108.88 97.01 108.88 97.01 111 99.69 C111.7 100.56 112.4 101.43 113.12 102.32 C115.99 106.41 117.6 109.98 117 115 C114.62 121.38 114.62 121.38 112 124 C111.01 124 110.02 124 109 124 C109 124.66 109 125.32 109 126 C107.08 126.08 105.17 126.14 103.25 126.19 C101.65 126.24 101.65 126.24 100.02 126.29 C96.67 125.97 95.39 125.31 93 123 C92.67 122.34 92.34 121.68 92 121 C91.34 121 90.68 121 90 121 C88.52 119.53 88.52 119.53 86.81 117.5 C86.19 116.77 85.57 116.04 84.94 115.29 C84.3 114.54 83.66 113.78 83 113 C81.77 111.6 80.54 110.21 79.31 108.81 C77.41 106.64 75.59 104.47 73.81 102.19 C72.08 99.92 72.08 99.92 69.75 98.31 C69.17 97.88 68.6 97.45 68 97 C68 96.34 68 95.68 68 95 C67.36 94.73 66.72 94.46 66.06 94.19 C64 93 64 93 63 90 C61.51 89.01 61.51 89.01 60 88 C60 87.34 60 86.68 60 86 C58.51 85.5 58.51 85.5 57 85 C55.84 83.26 54.98 81.47 54.06 79.59 C53.01 77.66 53.01 77.66 50 77 C48.88 74 48.88 74 48 71 C47.67 70.67 47.34 70.34 47 70 C46.48 63.87 46.99 60.93 51 56 C51.4 55.46 51.8 54.91 52.21 54.35 C54.99 52.26 57.42 52.66 60.86 52.71 C61.52 52.71 62.18 52.72 62.86 52.72 C64.97 52.74 67.08 52.77 69.19 52.81 C70.62 52.83 72.05 52.84 73.48 52.85 C76.99 52.88 80.49 52.94 84 53 C83.67 45.08 83.34 37.16 83 29 C74.93 28.98 66.87 28.96 58.8 28.95 C55.06 28.94 51.31 28.94 47.56 28.92 C43.95 28.91 40.34 28.91 36.73 28.91 C35.35 28.9 33.97 28.9 32.59 28.89 C30.66 28.89 28.73 28.89 26.8 28.89 C25.71 28.88 24.61 28.88 23.47 28.88 C21.06 28.72 21.06 28.72 20 30 C19.9 32.68 19.86 35.33 19.86 38 C19.85 38.84 19.85 39.68 19.85 40.55 C19.84 42.38 19.83 44.21 19.83 46.03 C19.82 48.93 19.81 51.83 19.79 54.72 C19.74 62.96 19.69 71.2 19.67 79.43 C19.66 84.46 19.63 89.5 19.59 94.53 C19.58 96.45 19.58 98.37 19.58 100.28 C19.58 102.97 19.56 105.66 19.53 108.35 C19.54 109.14 19.54 109.93 19.55 110.74 C19.46 115.93 18.42 118.88 15 123 C10.53 126.05 6.29 126.96 1 126 C-4.1 123.3 -7.17 120.48 -9 115 C-9.1 113.54 -9.14 112.08 -9.15 110.62 C-9.16 109.72 -9.17 108.83 -9.18 107.9 C-9.18 106.92 -9.19 105.94 -9.19 104.93 C-9.2 103.9 -9.21 102.86 -9.22 101.8 C-9.24 98.37 -9.26 94.94 -9.27 91.51 C-9.28 90.34 -9.28 89.17 -9.29 87.97 C-9.32 81.77 -9.34 75.58 -9.35 69.39 C-9.37 62.99 -9.41 56.59 -9.46 50.19 C-9.5 45.27 -9.51 40.35 -9.51 35.44 C-9.52 33.08 -9.54 30.72 -9.56 28.36 C-9.59 25.06 -9.59 21.76 -9.58 18.46 C-9.6 17.48 -9.62 16.51 -9.63 15.5 C-9.59 11.1 -9.44 7.93 -6.71 4.35 C-4 2 -4 2 0 2 C0 1.34 0 0.68 0 0 Z M101 77 C101 77.33 101 77.66 101 78 C102.65 78 104.3 78 106 78 C106 77.67 106 77.34 106 77 C104.35 77 102.7 77 101 77 Z M111 120 C112 122 112 122 112 122 Z " fill="#181A1A" transform="translate(345,2)"/>
    <path d="M0 0 C2.34 0.35 2.34 0.35 4.31 -0.84 C4.64 0.48 4.97 1.8 5.31 3.16 C5.97 3.16 6.63 3.16 7.31 3.16 C7.31 3.82 7.31 4.48 7.31 5.16 C8.96 5.82 10.61 6.48 12.31 7.16 C12.31 8.48 12.31 9.8 12.31 11.16 C14.79 11.65 14.79 11.65 17.31 12.16 C17.31 12.82 17.31 13.48 17.31 14.16 C17.85 14.38 18.38 14.61 18.94 14.84 C23.49 17.36 26.94 20.6 30.19 24.59 C32.34 27.2 34.5 29.14 37.25 31.09 C41.06 33.8 43.91 36.91 46.87 40.52 C48.23 42.27 48.23 42.27 50.31 43.16 C50.31 43.82 50.31 44.48 50.31 45.16 C50.97 45.49 51.63 45.82 52.31 46.16 C57.05 49.59 57.05 49.59 58.25 52.16 C59.86 55.19 62.45 56.34 65.31 58.16 C71.71 63.12 71.71 63.12 74.31 66.16 C74.31 66.82 74.31 67.48 74.31 68.16 C74.97 68.16 75.63 68.16 76.31 68.16 C76.64 68.82 76.97 69.48 77.31 70.16 C78.97 71.17 80.64 72.17 82.31 73.16 C82.97 73.82 83.63 74.48 84.31 75.16 C84.32 74.37 84.33 73.58 84.34 72.77 C84.42 65.32 84.5 57.88 84.6 50.43 C84.65 46.61 84.7 42.78 84.73 38.95 C84.77 35.26 84.82 31.56 84.87 27.87 C84.89 26.46 84.9 25.05 84.92 23.64 C84.93 21.67 84.96 19.69 84.99 17.71 C85.01 16.59 85.02 15.47 85.03 14.31 C85.48 9.23 86.59 5.17 90.5 1.78 C93.24 -0.39 94.28 -0.84 97.88 -1.34 C102.85 -0.62 107.06 0.09 110.31 4.16 C112.42 7.31 112.57 8.08 112.6 11.69 C112.61 12.62 112.63 13.55 112.64 14.51 C112.64 15.52 112.65 16.54 112.65 17.59 C112.66 18.66 112.67 19.74 112.69 20.84 C112.72 24.4 112.74 27.96 112.75 31.52 C112.76 33.34 112.76 33.34 112.77 35.2 C112.81 41.63 112.83 48.05 112.85 54.48 C112.86 61.12 112.92 67.76 112.99 74.4 C113.04 79.5 113.05 84.61 113.05 89.71 C113.06 92.16 113.08 94.61 113.11 97.06 C113.16 100.48 113.15 103.91 113.14 107.33 C113.17 108.85 113.17 108.85 113.21 110.4 C113.12 117.16 113.12 117.16 110.73 120.12 C108.99 121.62 107.24 122.91 105.31 124.16 C104.98 124.49 104.65 124.82 104.31 125.16 C98.07 126.11 93.94 124.91 88.75 121.45 C88.27 121.02 87.8 120.59 87.31 120.16 C87.31 119.5 87.31 118.84 87.31 118.16 C86.69 117.91 86.08 117.66 85.44 117.41 C82.93 115.93 82.55 114.72 81.31 112.16 C79.83 111.66 79.83 111.66 78.31 111.16 C77.98 110.5 77.65 109.84 77.31 109.16 C74.73 106.98 72.12 105.03 69.31 103.16 C68.98 102.17 68.65 101.18 68.31 100.16 C67.65 99.83 66.99 99.5 66.31 99.16 C64.31 98.16 64.31 98.16 63.31 95.16 C62.65 95.16 61.99 95.16 61.31 95.16 C61.31 94.5 61.31 93.84 61.31 93.16 C60.59 92.95 59.87 92.74 59.12 92.53 C56.11 91.06 54.67 89.38 52.65 86.75 C51.23 85.06 49.73 83.77 48 82.41 C47.11 81.66 46.23 80.92 45.31 80.16 C45.31 79.5 45.31 78.84 45.31 78.16 C44.76 77.91 44.2 77.66 43.62 77.41 C38.83 74.81 35.93 72.46 34.31 67.16 C33.65 67.16 32.99 67.16 32.31 67.16 C32.31 66.5 32.31 65.84 32.31 65.16 C30.99 64.83 29.67 64.5 28.31 64.16 C28.31 63.5 28.31 62.84 28.31 62.16 C27.65 62.16 26.99 62.16 26.31 62.16 C26.31 61.5 26.31 60.84 26.31 60.16 C25.32 59.83 24.33 59.5 23.31 59.16 C23.31 58.5 23.31 57.84 23.31 57.16 C22.65 57.16 21.99 57.16 21.31 57.16 C21.31 56.5 21.31 55.84 21.31 55.16 C20.73 54.89 20.15 54.63 19.55 54.35 C17.25 53.12 15.51 51.75 13.56 50.03 C12.95 49.49 12.34 48.95 11.7 48.4 C11.24 47.99 10.79 47.58 10.31 47.16 C10.33 48.03 10.34 48.91 10.35 49.81 C10.47 58.08 10.56 66.35 10.62 74.62 C10.65 78.87 10.7 83.12 10.77 87.37 C10.83 91.47 10.87 95.58 10.88 99.68 C10.89 101.25 10.91 102.81 10.95 104.37 C11.22 118.17 11.22 118.17 7.46 122.1 C2.79 125.15 -1.2 125.72 -6.69 125.16 C-9.4 124.45 -11.2 123.58 -13.69 122.16 C-14.62 119.97 -14.62 119.97 -14.69 118.16 C-15.35 118.16 -16.01 118.16 -16.69 118.16 C-16.85 103.66 -16.97 89.16 -17.05 74.66 C-17.09 67.93 -17.14 61.19 -17.22 54.46 C-17.29 47.96 -17.33 41.47 -17.35 34.97 C-17.36 32.49 -17.39 30.01 -17.43 27.53 C-17.48 24.06 -17.49 20.59 -17.48 17.12 C-17.51 16.09 -17.53 15.07 -17.56 14.01 C-17.49 7.18 -17.49 7.18 -15.15 4.18 C-9.83 -0.47 -6.89 -0.88 0 0 Z " fill="#1B1D1C" transform="translate(1164.6875,2.84375)"/>
    <path d="M0 0 C6.11 -0.52 10.76 0.76 16 4 C20.14 9.18 20.17 14.63 20.32 21.05 C20.34 21.82 20.36 22.59 20.38 23.38 C20.44 25.84 20.5 28.29 20.56 30.75 C20.61 32.42 20.65 34.09 20.69 35.75 C20.8 39.84 20.9 43.92 21 48 C35.92 49.36 35.92 49.36 49.28 44.18 C51.99 41.57 54.35 38.72 56.51 35.63 C58 34 58 34 60.8 32.16 C64.2 29.86 66.95 27.25 69.77 24.32 C70.86 23.21 71.94 22.11 73.02 21.01 C74.7 19.29 76.37 17.56 78.04 15.84 C92.74 0.7 92.74 0.7 99.97 -0.49 C101.22 -0.4 101.22 -0.4 102.5 -0.31 C103.36 -0.27 104.21 -0.22 105.09 -0.18 C105.72 -0.12 106.35 -0.06 107 0 C107 0.66 107 1.32 107 2 C107.99 1.67 108.98 1.34 110 1 C114.29 6.66 116.3 10.48 116.32 17.73 C114.51 26.99 103.14 35.49 96 41 C95.34 41 94.68 41 94 41 C94 41.66 94 42.32 94 43 C93.34 43 92.68 43 92 43 C92 43.66 92 44.32 92 45 C86.59 49 86.59 49 84 49 C84 49.66 84 50.32 84 51 C82.43 52.52 82.43 52.52 80.31 54.25 C76.76 57.26 73.86 60.34 71 64 C72.41 65.46 73.83 66.92 75.25 68.38 C76.04 69.19 76.83 70 77.64 70.84 C79.73 72.76 81.4 73.92 84 75 C84 75.66 84 76.32 84 77 C85.98 77.99 85.98 77.99 88 79 C88 79.99 88 80.98 88 82 C89.65 82.66 91.3 83.32 93 84 C93 84.66 93 85.32 93 86 C94.49 86.5 94.49 86.5 96 87 C96 87.66 96 88.32 96 89 C97.65 89.66 99.3 90.32 101 91 C101 91.66 101 92.32 101 93 C102.49 93.5 102.49 93.5 104 94 C105.02 94.98 106.02 95.98 107 97 C108.48 97.99 108.48 97.99 110 99 C112.58 101.1 113.68 102.03 115 105 C115.43 110.04 115.29 114.96 115 120 C114.34 120 113.68 120 113 120 C112.51 121.98 112.51 121.98 112 124 C111.01 124 110.02 124 109 124 C109 124.66 109 125.32 109 126 C96.38 126.74 96.38 126.74 91 122 C89.99 121.17 88.98 120.35 87.94 119.5 C86.48 118.26 86.48 118.26 85 117 C84.05 116.28 83.1 115.56 82.12 114.81 C81.42 114.21 80.72 113.62 80 113 C80 112.34 80 111.68 80 111 C78.51 110.5 78.51 110.5 77 110 C77 109.34 77 108.68 77 108 C75.02 107.01 75.02 107.01 73 106 C73 105.34 73 104.68 73 104 C72.2 103.69 72.2 103.69 71.38 103.38 C67.99 101.41 65.57 98.7 62.88 95.88 C60.95 93.86 59.02 91.92 57 90 C56.34 90 55.68 90 55 90 C55 89.34 55 88.68 55 88 C54.34 88 53.68 88 53 88 C48.23 83.7 48.23 83.7 47 80 C46.01 79.67 45.02 79.34 44 79 C44 78.34 44 77.68 44 77 C41.14 76.05 39.09 75.81 36.11 75.68 C35.18 75.64 34.24 75.6 33.27 75.56 C32.3 75.52 31.32 75.48 30.31 75.44 C28.83 75.37 28.83 75.37 27.32 75.31 C24.88 75.2 22.44 75.1 20 75 C20.02 76.18 20.03 77.35 20.05 78.56 C20.1 82.94 20.14 87.32 20.16 91.71 C20.18 93.6 20.2 95.49 20.23 97.38 C20.26 100.11 20.28 102.84 20.29 105.57 C20.31 106.41 20.32 107.24 20.34 108.11 C20.34 114.61 19.34 119.52 14.72 124.41 C11.39 126.36 9.28 126.47 5.44 126.38 C4.32 126.36 3.21 126.35 2.06 126.34 C-2.14 125.87 -4 124.92 -7.09 122.08 C-9.89 117.57 -9.54 113.61 -9.49 108.4 C-9.49 107.33 -9.49 106.26 -9.5 105.16 C-9.5 101.64 -9.48 98.11 -9.46 94.59 C-9.46 92.14 -9.46 89.69 -9.46 87.24 C-9.46 82.11 -9.44 76.98 -9.41 71.85 C-9.38 65.26 -9.37 58.68 -9.37 52.1 C-9.37 47.04 -9.36 41.98 -9.35 36.92 C-9.34 34.5 -9.34 32.07 -9.33 29.64 C-9.33 26.25 -9.31 22.86 -9.29 19.47 C-9.29 18.47 -9.29 17.46 -9.29 16.42 C-9.28 15.5 -9.28 14.58 -9.27 13.62 C-9.26 12.82 -9.26 12.02 -9.26 11.2 C-8.88 7.97 -7.61 5.78 -5.62 3.25 C-4 2 -4 2 0 2 C0 1.34 0 0.68 0 0 Z M113 19 C114 21 114 21 114 21 Z M88 43 C87.67 43.66 87.34 44.32 87 45 C87.66 45 88.32 45 89 45 C88.67 44.34 88.34 43.68 88 43 Z M73 56 C74 58 74 58 74 58 Z M15 119 C16 121 16 121 16 121 Z M11 122 C11.33 122.99 11.66 123.98 12 125 C12.33 124.01 12.66 123.02 13 122 C12.34 122 11.68 122 11 122 Z " fill="#191B1A" transform="translate(919,2)"/>
    <path d="M0 0 C5.35 2.62 8.41 7.17 10.94 12.44 C12.25 14.99 13.6 17.53 14.94 20.06 C15.29 20.74 15.65 21.42 16.02 22.12 C17.47 24.87 18.73 27.23 20.94 29.44 C20.94 30.76 20.94 32.08 20.94 33.44 C21.51 33.61 22.09 33.78 22.69 33.95 C26.14 36.23 27.25 39.5 28.94 43.19 C31.3 48.23 33.75 52.87 36.94 57.44 C38.52 60.21 38.94 61.17 38.94 64.44 C40.42 64.93 40.42 64.93 41.94 65.44 C42.64 67.09 43.3 68.76 43.94 70.44 C45.08 72.39 46.29 74.29 47.51 76.2 C58.04 92.76 58.04 92.76 59.94 98.44 C60.9 99.58 60.9 99.58 61.88 100.75 C65.03 104.86 66.21 108.36 65.75 113.5 C65.15 117.05 64.27 119.62 61.94 122.44 C58.2 124.96 54.72 126.12 50.16 125.91 C45.43 124.91 41.51 122.66 37.94 119.44 C36.35 116.51 35.5 113.71 34.94 110.44 C34.28 110.44 33.62 110.44 32.94 110.44 C32.61 108.79 32.28 107.14 31.94 105.44 C31.28 105.44 30.62 105.44 29.94 105.44 C28.66 101.79 27.61 98.24 26.94 94.44 C25.95 94.44 24.96 94.44 23.94 94.44 C23.83 93.84 23.73 93.24 23.62 92.62 C23.11 90.38 23.11 90.38 21.49 89.05 C19.75 87.24 19.2 85.87 18.44 83.5 C17.34 80.33 16.01 78.1 13.94 75.44 C13.94 74.45 13.94 73.46 13.94 72.44 C12.45 71.94 12.45 71.94 10.94 71.44 C10.61 70.45 10.28 69.46 9.94 68.44 C9.28 68.11 8.62 67.78 7.94 67.44 C6.87 65.15 6.87 65.15 5.81 62.38 C5.46 61.46 5.11 60.54 4.74 59.59 C4.34 58.52 4.34 58.52 3.94 57.44 C3.28 57.44 2.62 57.44 1.94 57.44 C1.77 56.82 1.6 56.21 1.42 55.57 C-0.34 49.47 -0.34 49.47 -5.06 45.44 C-5.06 44.78 -5.06 44.12 -5.06 43.44 C-6.05 43.93 -6.05 43.93 -7.06 44.44 C-7.25 45.24 -7.25 45.24 -7.44 46.06 C-8.77 51.14 -12.06 55.47 -15 59.75 C-18.17 64.42 -20.66 69.34 -23.06 74.44 C-23.72 74.44 -24.38 74.44 -25.06 74.44 C-25.12 75.12 -25.19 75.8 -25.25 76.5 C-26.13 79.68 -27.61 81.66 -29.59 84.26 C-32.59 88.69 -34.76 93.62 -37.06 98.44 C-37.39 97.78 -37.72 97.12 -38.06 96.44 C-38.39 98.09 -38.72 99.74 -39.06 101.44 C-39.72 101.44 -40.38 101.44 -41.06 101.44 C-41.06 102.76 -41.06 104.08 -41.06 105.44 C-41.72 105.44 -42.38 105.44 -43.06 105.44 C-43.39 107.09 -43.72 108.74 -44.06 110.44 C-46.04 110.93 -46.04 110.93 -48.06 111.44 C-47.4 111.77 -46.74 112.1 -46.06 112.44 C-48.94 118.67 -51.55 122.77 -58.06 125.44 C-58.56 124.94 -58.56 124.94 -59.06 124.44 C-59.06 124.77 -59.06 125.1 -59.06 125.44 C-64.78 125.9 -67.62 125.08 -72.06 121.44 C-73.88 119.19 -73.88 119.19 -75.06 117.44 C-75.39 117.44 -75.72 117.44 -76.06 117.44 C-76.06 113.81 -76.06 110.18 -76.06 106.44 C-75.4 106.44 -74.74 106.44 -74.06 106.44 C-73.96 105.72 -73.86 104.99 -73.75 104.25 C-72.99 101.14 -71.77 99.13 -70.06 96.44 C-69.05 94.45 -68.05 92.45 -67.06 90.44 C-66.4 89.1 -65.73 87.77 -65.06 86.44 C-64.4 86.44 -63.74 86.44 -63.06 86.44 C-62.97 85.42 -62.97 85.42 -62.88 84.38 C-61.93 80.96 -60.4 78.92 -58.22 76.18 C-56.96 74.28 -56.49 72.67 -56.06 70.44 C-55.4 70.44 -54.74 70.44 -54.06 70.44 C-53.94 69.85 -53.83 69.27 -53.7 68.66 C-53.03 66.34 -52.16 64.81 -50.81 62.81 C-47.83 58.21 -45.44 53.37 -43.06 48.44 C-42.4 48.44 -41.74 48.44 -41.06 48.44 C-40.96 47.9 -40.86 47.37 -40.75 46.81 C-39.52 42.55 -37.42 38.97 -34.94 35.31 C-33.27 32.76 -32.75 31.28 -32.06 28.44 C-31.08 27.42 -30.08 26.42 -29.06 25.44 C-27.89 23.34 -27.89 23.34 -27.06 21.44 C-26.4 21.44 -25.74 21.44 -25.06 21.44 C-25.06 20.12 -25.06 18.8 -25.06 17.44 C-24.4 17.44 -23.74 17.44 -23.06 17.44 C-23.02 16.78 -22.98 16.12 -22.94 15.44 C-19.76 4.54 -11.08 -2.04 0 0 Z " fill="#181A19" transform="translate(234.0625,2.5625)"/>
    <path d="M0 0 C2.47 1.15 4.05 2.05 6 4 C7.13 4.41 8.27 4.82 9.44 5.25 C13.61 7.3 14.47 8.69 16 13 C16 13.99 16 14.98 16 16 C20.04 14.69 20.04 14.69 24 13.16 C24.68 12.88 25.36 12.6 26.06 12.31 C26.69 12.04 27.32 11.77 27.97 11.49 C30.59 10.86 32.38 11.42 35 12 C37.14 12.1 39.29 12.13 41.44 12.12 C42.75 12.12 44.06 12.12 45.41 12.12 C48.8 12.07 52.15 11.86 55.52 11.6 C73.39 10.28 73.39 10.28 80.49 14.38 C82.45 16.48 82.67 18.2 83 21 C80.54 22.23 78.87 22.15 76.12 22.19 C75.11 22.21 74.09 22.22 73.05 22.24 C71.95 22.25 70.85 22.27 69.72 22.28 C68.59 22.3 67.47 22.32 66.31 22.34 C61.48 22.42 56.66 22.48 51.83 22.55 C48.31 22.6 44.8 22.66 41.28 22.72 C40.18 22.73 39.08 22.75 37.95 22.76 C36.94 22.78 35.92 22.79 34.88 22.81 C33.53 22.83 33.53 22.83 32.16 22.85 C29.95 22.86 29.95 22.86 28 24 C28.76 24.01 29.52 24.02 30.3 24.02 C37.45 24.1 44.61 24.19 51.76 24.29 C55.43 24.34 59.11 24.38 62.79 24.42 C66.33 24.46 69.88 24.51 73.43 24.56 C74.78 24.58 76.14 24.59 77.49 24.6 C79.39 24.62 81.28 24.65 83.17 24.68 C84.25 24.69 85.33 24.71 86.44 24.72 C89 25 89 25 91 27 C91.23 29.52 91.23 29.52 91.2 32.66 C91.19 33.79 91.18 34.91 91.18 36.06 C91.15 37.83 91.15 37.83 91.12 39.62 C91.12 40.81 91.11 41.99 91.1 43.21 C91.07 46.14 91.04 49.07 91 52 C90.34 52 89.68 52 89 52 C89 52.66 89 53.32 89 54 C78.77 54 68.54 54 58 54 C58 54.66 58 55.32 58 56 C57.01 55.51 57.01 55.51 56 55 C56.66 53.68 57.32 52.36 58 51 C67.9 51 77.8 51 88 51 C87.67 43.08 87.34 35.16 87 27 C78.93 26.98 70.87 26.96 62.8 26.95 C59.06 26.94 55.31 26.94 51.56 26.92 C47.95 26.91 44.34 26.91 40.73 26.91 C39.35 26.9 37.97 26.9 36.59 26.89 C34.66 26.89 32.73 26.89 30.8 26.89 C29.71 26.88 28.61 26.88 27.47 26.88 C25.06 26.72 25.06 26.72 24 28 C23.9 30.68 23.86 33.33 23.86 36 C23.85 36.84 23.85 37.68 23.85 38.55 C23.84 40.38 23.83 42.21 23.83 44.03 C23.82 46.93 23.81 49.83 23.79 52.72 C23.74 60.96 23.69 69.2 23.67 77.43 C23.66 82.46 23.63 87.5 23.59 92.53 C23.58 94.45 23.58 96.37 23.58 98.28 C23.58 100.97 23.56 103.66 23.53 106.35 C23.54 107.14 23.54 107.93 23.55 108.74 C23.46 113.93 22.42 116.88 19 121 C14.53 124.05 10.29 124.96 5 124 C-0.1 121.3 -3.17 118.48 -5 113 C-5.1 111.54 -5.14 110.08 -5.15 108.62 C-5.16 107.72 -5.17 106.83 -5.18 105.9 C-5.18 104.92 -5.19 103.94 -5.19 102.93 C-5.2 101.9 -5.21 100.86 -5.22 99.8 C-5.24 96.37 -5.26 92.94 -5.27 89.51 C-5.28 88.34 -5.28 87.17 -5.29 85.97 C-5.32 79.77 -5.34 73.58 -5.35 67.39 C-5.37 60.99 -5.41 54.59 -5.46 48.19 C-5.5 43.27 -5.51 38.35 -5.51 33.44 C-5.52 31.08 -5.54 28.72 -5.56 26.36 C-5.59 23.06 -5.59 19.76 -5.58 16.46 C-5.6 15.48 -5.62 14.51 -5.63 13.5 C-5.59 8.94 -5.44 5.94 -2.46 2.35 C-1.65 1.57 -0.84 0.8 0 0 Z " fill="#171919" transform="translate(341,4)"/>
    <path d="M0 0 C1.21 -0.01 2.41 -0.01 3.65 -0.02 C6.94 -0.04 10.23 -0.02 13.52 0.02 C16.97 0.05 20.42 0.04 23.88 0.04 C29.68 0.04 35.48 0.06 41.27 0.11 C47.96 0.16 54.65 0.18 61.33 0.17 C67.79 0.16 74.24 0.18 80.69 0.21 C83.43 0.22 86.17 0.22 88.9 0.22 C92.73 0.23 96.56 0.26 100.39 0.29 C101.51 0.29 102.64 0.29 103.8 0.28 C110.36 0.38 116.23 1.03 121.76 4.86 C125.02 9.17 126.5 13.41 125.76 18.86 C124.76 21.23 124.76 21.23 123.76 22.86 C123.1 22.86 122.44 22.86 121.76 22.86 C121.43 24.18 121.1 25.5 120.76 26.86 C119.77 26.86 118.78 26.86 117.76 26.86 C117.76 27.52 117.76 28.18 117.76 28.86 C100.86 28.9 83.96 28.94 67.07 28.96 C59.22 28.97 51.37 28.99 43.53 29.01 C36.69 29.03 29.85 29.04 23.02 29.05 C19.4 29.05 15.77 29.06 12.15 29.07 C8.11 29.09 4.07 29.09 0.03 29.09 C-1.17 29.09 -2.38 29.1 -3.62 29.11 C-5.26 29.1 -5.26 29.1 -6.94 29.1 C-7.9 29.1 -8.86 29.1 -9.84 29.1 C-12.24 28.86 -12.24 28.86 -15.24 26.86 C-15.24 26.2 -15.24 25.54 -15.24 24.86 C-15.88 24.71 -16.52 24.57 -17.18 24.42 C-19.24 23.86 -19.24 23.86 -20.24 22.86 C-20.62 19.73 -20.62 19.73 -20.8 15.73 C-20.93 13.78 -20.93 13.78 -21.06 11.79 C-20.63 7.23 -18.15 5.16 -14.74 2.34 C-10.07 -0.42 -5.3 -0.09 0 0 Z M123.76 12.86 C124.76 14.86 124.76 14.86 124.76 14.86 Z " fill="#191B1B" transform="translate(22.239990234375,1.141845703125)"/>
    <path d="M0 0 C1.01 0 1.01 0 2.04 0 C5.69 0.07 7.33 0.3 10.44 2.38 C10.44 3.04 10.44 3.7 10.44 4.38 C11.1 4.38 11.76 4.38 12.44 4.38 C13.64 6.78 13.56 8.28 13.56 10.97 C13.57 11.94 13.57 12.9 13.57 13.9 C13.57 14.96 13.57 16.03 13.57 17.13 C13.57 18.25 13.57 19.36 13.57 20.52 C13.58 24.23 13.57 27.94 13.57 31.66 C13.57 34.23 13.57 36.8 13.57 39.37 C13.57 44.76 13.57 50.16 13.57 55.55 C13.56 61.79 13.56 68.03 13.57 74.27 C13.57 80.27 13.57 86.27 13.57 92.26 C13.57 94.82 13.57 97.37 13.57 99.93 C13.58 103.49 13.57 107.06 13.57 110.62 C13.57 111.69 13.57 112.75 13.57 113.85 C13.57 115.3 13.57 115.3 13.56 116.78 C13.56 117.63 13.56 118.47 13.56 119.34 C13.44 121.38 13.44 121.38 12.44 123.38 C11.78 123.38 11.12 123.38 10.44 123.38 C10.44 124.03 10.44 124.69 10.44 125.38 C7.45 126.87 4.4 126.68 1.12 126.75 C-0.19 126.8 -1.51 126.85 -2.86 126.9 C-7.42 126.25 -8.72 124.89 -11.56 121.38 C-13.44 118.69 -13.44 118.69 -14.56 116.38 C-14.07 115.39 -14.07 115.39 -13.56 114.38 C-13.48 112.99 -13.45 111.61 -13.46 110.23 C-13.46 109.36 -13.46 108.49 -13.46 107.59 C-13.47 106.64 -13.47 105.68 -13.48 104.7 C-13.48 103.69 -13.49 102.69 -13.49 101.65 C-13.5 99.46 -13.51 97.27 -13.52 95.09 C-13.54 91.62 -13.55 88.16 -13.55 84.7 C-13.58 74.85 -13.61 65 -13.66 55.15 C-13.69 49.13 -13.7 43.11 -13.71 37.09 C-13.72 34.8 -13.73 32.5 -13.74 30.21 C-13.76 27 -13.77 23.78 -13.77 20.57 C-13.78 19.62 -13.79 18.68 -13.8 17.7 C-13.79 11.81 -13.4 6.99 -9.91 2.02 C-6.56 -0.33 -4.05 -0.09 0 0 Z M11.44 116.38 C11.44 118.03 11.44 119.67 11.44 121.38 C11.77 121.38 12.1 121.38 12.44 121.38 C12.44 119.72 12.44 118.08 12.44 116.38 C12.11 116.38 11.78 116.38 11.44 116.38 Z M9.44 120.38 C9.44 121.03 9.44 121.69 9.44 122.38 C10.1 122.05 10.76 121.72 11.44 121.38 C10.78 121.05 10.12 120.72 9.44 120.38 Z " fill="#181A19" transform="translate(1089.5625,1.625)"/>
    <path d="M0 0 C2.48 0.99 2.48 0.99 5 2 C5 2.33 5 2.66 5 3 C3.35 3 1.7 3 0 3 C4.38 4.69 8.31 5.31 12.95 5.56 C15.7 6.15 16.37 6.68 18 9 C18.32 11.88 18.46 14.55 18.48 17.43 C18.49 18.26 18.51 19.08 18.52 19.94 C18.57 22.58 18.6 25.23 18.62 27.88 C18.66 30.51 18.7 33.15 18.75 35.79 C18.77 37.43 18.8 39.08 18.81 40.72 C18.85 43.89 18.95 46.77 19.6 49.89 C20.18 52.98 18.63 54.4 17 57 C16.75 59.71 16.75 59.71 17 62 C17.57 62.11 18.13 62.22 18.71 62.33 C19.82 62.57 19.82 62.57 20.94 62.81 C21.67 62.96 22.4 63.11 23.15 63.27 C23.76 63.51 24.37 63.75 25 64 C26 67 26 67 25 70 C31.6 70.66 38.2 71.32 45 72 C45 72.33 45 72.66 45 73 C38.07 73 31.14 73 24 73 C24.05 77.21 24.05 77.21 24.11 81.5 C24.13 84.24 24.15 86.97 24.16 89.71 C24.18 91.6 24.2 93.49 24.23 95.38 C24.26 98.11 24.28 100.84 24.29 103.57 C24.31 104.41 24.32 105.24 24.34 106.11 C24.34 112.61 23.34 117.52 18.72 122.41 C15.39 124.36 13.28 124.47 9.44 124.38 C8.32 124.36 7.21 124.35 6.06 124.34 C1.86 123.87 0 122.92 -3.09 120.08 C-5.89 115.57 -5.54 111.61 -5.49 106.4 C-5.49 105.33 -5.49 104.26 -5.5 103.16 C-5.5 99.64 -5.48 96.11 -5.46 92.59 C-5.46 90.14 -5.46 87.69 -5.46 85.24 C-5.46 80.11 -5.44 74.98 -5.41 69.85 C-5.38 63.26 -5.37 56.68 -5.37 50.1 C-5.37 45.04 -5.36 39.98 -5.35 34.92 C-5.34 32.5 -5.34 30.07 -5.33 27.64 C-5.33 24.25 -5.31 20.86 -5.29 17.47 C-5.29 16.47 -5.29 15.46 -5.29 14.42 C-5.28 13.5 -5.28 12.58 -5.27 11.62 C-5.26 10.82 -5.26 10.02 -5.26 9.2 C-4.78 5.16 -2.95 2.68 0 0 Z M-2 5 C-2.07 19.7 -2.12 34.4 -2.16 49.1 C-2.17 55.92 -2.19 62.75 -2.23 69.57 C-2.26 76.15 -2.28 82.73 -2.28 89.31 C-2.29 91.83 -2.3 94.35 -2.32 96.86 C-2.34 100.37 -2.34 103.89 -2.34 107.4 C-2.35 108.45 -2.36 109.5 -2.37 110.58 C-2.37 111.53 -2.37 112.49 -2.36 113.47 C-2.36 114.3 -2.37 115.13 -2.37 115.99 C-2.25 116.65 -2.13 117.32 -2 118 C-1.01 118.66 -0.02 119.32 1 120 C0.81 119.03 0.63 118.06 0.44 117.06 C0.29 116.05 0.15 115.04 0 114 C0.5 113.5 0.5 113.5 1 113 C1.11 111.67 1.16 110.34 1.17 109 C1.18 108.14 1.2 107.28 1.21 106.39 C1.22 105.44 1.23 104.49 1.24 103.51 C1.25 102.51 1.26 101.52 1.28 100.49 C1.32 97.18 1.35 93.86 1.39 90.55 C1.41 88.25 1.44 85.96 1.46 83.66 C1.52 78.84 1.57 74.02 1.61 69.19 C1.67 63.01 1.75 56.83 1.82 50.65 C1.88 45.9 1.93 41.16 1.98 36.41 C2 34.13 2.03 31.85 2.06 29.57 C2.1 26.38 2.13 23.2 2.15 20.01 C2.17 18.59 2.17 18.59 2.2 17.15 C2.22 12.65 2.16 9.08 0 5 C-0.66 5 -1.32 5 -2 5 Z M19 117 C20 119 20 119 20 119 Z M15 120 C15.33 120.99 15.66 121.98 16 123 C16.33 122.01 16.66 121.02 17 120 C16.34 120 15.68 120 15 120 Z " fill="#171918" transform="translate(915,4)"/>
    <path d="M0 0 C1.32 -0.01 2.64 -0.02 4 -0.03 C5.43 -0.03 6.86 -0.04 8.29 -0.04 C9.38 -0.05 9.38 -0.05 10.49 -0.05 C14.33 -0.07 18.17 -0.07 22.01 -0.08 C25.96 -0.08 29.92 -0.11 33.87 -0.14 C36.92 -0.16 39.97 -0.16 43.03 -0.16 C44.48 -0.17 45.94 -0.17 47.4 -0.19 C61.82 -0.31 61.82 -0.31 67.39 3.16 C70.15 7.3 71.17 11.2 71.39 16.16 C70.15 21.04 68.62 24.34 64.39 27.16 C61.26 27.44 61.26 27.44 57.35 27.47 C56.64 27.48 55.93 27.48 55.2 27.49 C52.84 27.52 50.48 27.53 48.12 27.53 C46.48 27.54 44.84 27.55 43.2 27.56 C39.76 27.58 36.32 27.58 32.88 27.59 C28.48 27.59 24.08 27.63 19.68 27.68 C16.29 27.71 12.9 27.71 9.51 27.71 C7.88 27.72 6.26 27.73 4.64 27.75 C2.37 27.78 0.09 27.77 -2.18 27.76 C-3.47 27.77 -4.76 27.77 -6.1 27.78 C-10.74 26.96 -12.33 25.5 -15.61 22.16 C-16.75 18.72 -16.88 15.85 -16.98 12.22 C-17.03 11 -17.08 9.77 -17.13 8.51 C-16.61 5.16 -16.61 5.16 -14.4 2.78 C-9.73 0.07 -5.32 0.03 0 0 Z M67.39 20.16 C68.39 22.16 68.39 22.16 68.39 22.16 Z " fill="#1B1D1D" transform="translate(18.60693359375,49.8388671875)"/>
    <path d="M0 0 C3.78 1.76 6.71 3.37 8.74 7.18 C8.74 7.84 8.74 8.5 8.74 9.18 C9.73 9.51 10.72 9.84 11.74 10.18 C12.45 11.49 13.11 12.83 13.74 14.18 C15.15 15.87 15.15 15.87 16.81 17.48 C17.44 18.1 18.06 18.72 18.7 19.36 C19.7 20.34 19.7 20.34 20.72 21.35 C21.75 22.37 21.75 22.37 22.8 23.42 C24.98 25.59 27.17 27.76 29.37 29.93 C30.85 31.4 32.34 32.88 33.82 34.35 C37.46 37.96 41.1 41.57 44.74 45.18 C44.08 46.5 43.42 47.82 42.74 49.18 C39.12 48.62 37.84 47.46 35.62 44.61 C32.2 40.52 28.43 37.37 24.22 34.11 C16.11 27.79 8.69 20.71 2.05 12.86 C-0.48 9.95 -2.62 7.67 -6.26 6.18 C-9.47 5.92 -9.47 5.92 -12.26 6.18 C-14.85 16.06 -14.53 25.86 -14.49 36.01 C-14.49 37.93 -14.49 39.86 -14.49 41.78 C-14.49 45.8 -14.48 49.81 -14.46 53.83 C-14.45 58.97 -14.44 64.11 -14.44 69.25 C-14.44 73.22 -14.44 77.18 -14.43 81.15 C-14.43 83.05 -14.43 84.94 -14.42 86.84 C-14.42 89.49 -14.41 92.13 -14.4 94.78 C-14.4 95.95 -14.4 95.95 -14.4 97.14 C-14.38 101.03 -14.03 104.32 -13.26 108.18 C-8.97 108.51 -4.68 108.84 -0.26 109.18 C-0.06 104 0.11 98.82 0.28 93.64 C0.34 91.88 0.4 90.12 0.47 88.36 C0.56 85.83 0.64 83.29 0.72 80.76 C0.75 79.97 0.78 79.19 0.82 78.38 C0.93 74.11 0.55 71.04 -1.26 67.18 C-1.77 61.64 -0.61 58.15 1.74 53.18 C3.17 49.41 4.38 46.21 3.74 42.18 C3.08 41.58 2.42 40.98 1.74 40.36 C-0.52 37.89 -0.55 37.33 -0.57 34.11 C-0.26 30.18 -0.26 30.18 0.74 27.18 C3.62 27.49 3.62 27.49 6.74 28.18 C9.22 31.89 8.99 34.68 8.93 38.96 C8.92 39.76 8.92 40.55 8.91 41.36 C8.89 43.99 8.86 46.61 8.82 49.23 C8.81 51.05 8.79 52.87 8.77 54.7 C8.73 58.52 8.68 62.34 8.63 66.16 C8.56 71.06 8.52 75.95 8.48 80.85 C8.45 84.61 8.41 88.37 8.36 92.14 C8.34 93.94 8.32 95.75 8.31 97.55 C8.29 100.08 8.25 102.6 8.21 105.13 C8.2 105.87 8.2 106.62 8.2 107.38 C8.1 111.86 7.3 114.53 4.74 118.18 C4.41 119.17 4.08 120.16 3.74 121.18 C-0.69 124.1 -5.03 125.24 -10.26 124.18 C-13.2 122.85 -15.84 121.32 -18.26 119.18 C-18.59 118.19 -18.92 117.2 -19.26 116.18 C-19.92 115.85 -20.58 115.52 -21.26 115.18 C-21.26 79.54 -21.26 43.9 -21.26 7.18 C-20.6 7.18 -19.94 7.18 -19.26 7.18 C-19.15 6.58 -19.05 5.98 -18.95 5.36 C-17.93 2.14 -16.27 0.78 -13.42 -0.92 C-9.05 -2.75 -4.33 -1.58 0 0 Z " fill="#1A1C1C" transform="translate(528.2578125,3.82421875)"/>
    <path d="M0 0 C0.81 2.19 0.81 2.19 1 4 C1.66 4 2.32 4 3 4 C3 7.67 3 11.33 3 15 C2.34 15 1.68 15 1 15 C0.91 16.18 0.91 16.18 0.81 17.38 C0 20 0 20 -2.07 21.15 C-5.66 22.19 -9.03 22.27 -12.74 22.24 C-13.5 22.24 -14.27 22.25 -15.05 22.25 C-17.57 22.25 -20.08 22.24 -22.59 22.23 C-24.35 22.23 -26.1 22.23 -27.85 22.23 C-31.52 22.23 -35.19 22.22 -38.85 22.21 C-43.55 22.19 -48.25 22.18 -52.95 22.19 C-56.56 22.19 -60.18 22.18 -63.8 22.17 C-65.53 22.17 -67.26 22.17 -68.99 22.17 C-71.42 22.16 -73.84 22.16 -76.26 22.15 C-76.97 22.15 -77.69 22.15 -78.42 22.15 C-82.07 22.12 -85.45 21.86 -89 21 C-89 20.67 -89 20.34 -89 20 C-84.45 19.28 -80.07 18.87 -75.47 18.84 C-74.22 18.83 -72.97 18.82 -71.68 18.81 C-71.02 18.81 -70.36 18.8 -69.68 18.8 C-67.61 18.79 -65.53 18.77 -63.45 18.75 C-57.56 18.69 -51.66 18.63 -45.76 18.6 C-42.14 18.58 -38.52 18.54 -34.9 18.5 C-33.52 18.48 -32.15 18.47 -30.77 18.47 C-28.85 18.47 -26.93 18.44 -25.01 18.42 C-23.38 18.4 -23.38 18.4 -21.71 18.39 C-18.71 17.96 -17.81 17.37 -16 15 C-19.47 11.37 -21.63 10.85 -26.62 10.5 C-30.03 10.25 -33.38 9.95 -36.76 9.48 C-41.57 8.86 -46.34 8.85 -51.19 8.88 C-52.5 8.87 -52.5 8.87 -53.84 8.86 C-58.05 8.87 -61.88 9.06 -66 10 C-67.58 10.09 -69.17 10.13 -70.75 10.12 C-71.62 10.12 -72.49 10.12 -73.38 10.12 C-75.86 10.01 -78.18 9.66 -80.62 9.25 C-84.97 8.68 -87.48 9.85 -91.2 12.01 C-93.41 13.23 -95.51 13.69 -98 14 C-99.84 9.97 -101.35 6 -102.61 1.74 C-102.87 0.85 -103.13 -0.04 -103.4 -0.96 C-103.7 -1.97 -103.7 -1.97 -104 -3 C-91.68 -3.15 -79.37 -3.3 -67.05 -3.44 C-61.33 -3.51 -55.61 -3.58 -49.89 -3.65 C-44.37 -3.72 -38.85 -3.78 -33.34 -3.84 C-31.23 -3.87 -29.12 -3.89 -27.02 -3.92 C-24.07 -3.96 -21.12 -3.99 -18.17 -4.02 C-17.3 -4.03 -16.43 -4.05 -15.53 -4.06 C-14.72 -4.07 -13.92 -4.08 -13.09 -4.08 C-12.04 -4.09 -12.04 -4.09 -10.98 -4.11 C-6.68 -3.87 -3.48 -2.54 0 0 Z " fill="#1A1C1C" transform="translate(864,7)"/>
    <path d="M0 0 C1.09 -0 2.19 -0 3.31 -0 C6.91 0 10.51 0.05 14.11 0.1 C16.61 0.11 19.11 0.11 21.61 0.12 C27.51 0.14 33.41 0.19 39.31 0.25 C46.69 0.32 54.07 0.35 61.45 0.39 C74.61 0.45 87.77 0.55 100.92 0.68 C100.92 1.01 100.92 1.34 100.92 1.68 C65.94 2.01 30.96 2.34 -5.08 2.68 C-2.83 6.06 -1.88 6.39 1.8 7.74 C6.72 9.57 6.72 9.57 8.85 10.7 C16.08 14.11 25.73 12.8 33.56 12.76 C35.83 12.74 38.1 12.74 40.37 12.73 C45.18 12.72 49.99 12.7 54.8 12.68 C60.4 12.66 65.99 12.64 71.59 12.63 C73.82 12.62 76.06 12.61 78.29 12.59 C79.66 12.59 81.03 12.59 82.39 12.58 C83.58 12.58 84.78 12.57 86 12.57 C88.92 12.68 88.92 12.68 91.92 13.68 C94.95 13.95 97.98 14.13 101.01 14.3 C103.83 14.67 105.47 15.33 107.92 16.68 C110.92 17.35 110.92 17.35 113.92 16.68 C116.35 13.8 116.35 13.8 117.92 10.68 C118.91 11.01 119.9 11.34 120.92 11.68 C121.96 14.97 122.13 16.26 120.61 19.43 C118.83 21.81 118 22.5 115.11 22.99 C109.35 23.62 103.64 23.86 97.84 23.92 C96.87 23.93 95.91 23.94 94.91 23.96 C91.74 24 88.58 24.03 85.41 24.07 C83.19 24.09 80.97 24.12 78.75 24.15 C74.1 24.2 69.45 24.25 64.81 24.29 C58.88 24.35 52.96 24.43 47.03 24.51 C42.45 24.56 37.86 24.61 33.28 24.66 C31.09 24.68 28.91 24.71 26.73 24.74 C5.82 25.02 5.82 25.02 -3.55 22.83 C-6.87 22.64 -8.38 23.85 -11.08 25.68 C-11.74 25.68 -12.4 25.68 -13.08 25.68 C-13.08 25.02 -13.08 24.36 -13.08 23.68 C-13.72 23.54 -14.35 23.39 -15.01 23.24 C-17.08 22.68 -17.08 22.68 -18.08 21.68 C-18.34 19.26 -18.49 16.92 -18.58 14.49 C-18.65 13.18 -18.72 11.87 -18.79 10.51 C-17.94 5.94 -16.8 4.75 -13.29 1.93 C-9.08 -0.44 -4.72 -0.1 0 0 Z " fill="#171918" transform="translate(20.075927734375,2.31884765625)"/>
    <path d="M0 0 C6.11 -0.52 10.76 0.76 16 4 C20.14 9.18 20.17 14.63 20.32 21.05 C20.34 21.82 20.36 22.59 20.38 23.38 C20.44 25.84 20.5 28.29 20.56 30.75 C20.61 32.42 20.65 34.09 20.69 35.75 C20.8 39.84 20.9 43.92 21 48 C33.38 47.51 33.38 47.51 46 47 C46.94 51.72 47.03 54.38 46 59 C45 60 44 61 43 62 C42.66 64.33 42.33 66.67 42 69 C41.07 71.21 41.07 71.21 39 73 C35.76 73.51 32.58 73.37 29.31 73.25 C28.42 73.23 27.53 73.21 26.61 73.2 C24.4 73.15 22.2 73.08 20 73 C20.33 70.69 20.66 68.38 21 66 C19.7 65.86 18.4 65.71 17.06 65.56 C13.12 65.13 13.12 65.13 12 64 C12.34 60.51 12.79 57.5 14.12 54.25 C15.32 51.89 15.32 51.89 14 49 C13.89 47.67 13.82 46.33 13.79 44.99 C13.77 44.19 13.75 43.39 13.73 42.56 C13.72 41.7 13.7 40.84 13.68 39.96 C13.66 39.07 13.64 38.19 13.62 37.28 C13.56 34.46 13.5 31.63 13.44 28.81 C13.39 26.9 13.35 24.99 13.31 23.07 C13.2 18.38 13.1 13.69 13 9 C12.26 8.94 11.53 8.88 10.77 8.82 C9.79 8.73 8.82 8.65 7.81 8.56 C6.37 8.44 6.37 8.44 4.89 8.32 C2.19 8.02 -0.38 7.7 -3 7 C-3.33 6.34 -3.66 5.68 -4 5 C-3.01 4.67 -2.02 4.34 -1 4 C-1.66 3.34 -2.32 2.68 -3 2 C-2.01 2 -1.02 2 0 2 C0 1.34 0 0.68 0 0 Z M-6 7 C-5.34 7 -4.68 7 -4 7 C-1.42 11.89 -1.76 16.59 -1.85 21.96 C-1.86 22.96 -1.86 23.96 -1.87 24.99 C-1.9 28.28 -1.94 31.58 -1.99 34.88 C-2.01 37.17 -2.03 39.46 -2.06 41.76 C-2.11 46.56 -2.16 51.36 -2.22 56.16 C-2.3 62.32 -2.36 68.48 -2.42 74.64 C-2.47 79.37 -2.52 84.11 -2.58 88.84 C-2.6 91.11 -2.62 93.38 -2.65 95.65 C-2.68 98.83 -2.72 102 -2.76 105.17 C-2.77 106.11 -2.78 107.05 -2.79 108.02 C-2.81 109.32 -2.81 109.32 -2.83 110.64 C-2.84 111.39 -2.85 112.14 -2.86 112.91 C-3 115.05 -3.47 116.93 -4 119 C-4 119.99 -4 120.98 -4 122 C-6 120 -6 120 -6.25 117.99 C-6.24 117.16 -6.24 116.33 -6.24 115.47 C-6.24 114.52 -6.25 113.56 -6.25 112.58 C-6.24 111.53 -6.23 110.48 -6.23 109.4 C-6.23 108.3 -6.23 107.2 -6.23 106.06 C-6.23 102.4 -6.21 98.74 -6.2 95.09 C-6.19 92.56 -6.19 90.02 -6.19 87.49 C-6.18 81.51 -6.16 75.52 -6.14 69.53 C-6.12 62.71 -6.11 55.89 -6.1 49.08 C-6.08 35.05 -6.04 21.03 -6 7 Z " fill="#1E2020" transform="translate(919,2)"/>
    <path d="M0 0 C4.91 0.24 7.45 2.88 10.69 6.25 C11.17 6.73 11.66 7.21 12.16 7.7 C17.18 12.81 18.28 16.69 18.25 23.75 C18.09 32.39 17.81 39.11 11.63 45.57 C6.82 49.8 1.12 50.84 -5 52 C-4.92 52.93 -4.84 53.86 -4.75 54.81 C-5 58 -5 58 -6.62 59.88 C-9.6 61.29 -11.74 61.28 -15 61 C-15.66 60.67 -16.32 60.34 -17 60 C-16.69 57.62 -16.69 57.62 -16 55 C-15.01 54.34 -14.02 53.68 -13 53 C-12.43 51.14 -12.43 51.14 -12.19 49.06 C-11.73 46.9 -11.73 46.9 -11 45 C-7.94 43.19 -7.94 43.19 -5 42 C-4.67 41.01 -4.34 40.02 -4 39 C-5.05 39.01 -6.09 39.03 -7.17 39.04 C-17.01 39.16 -26.86 39.27 -36.7 39.39 C-41.76 39.45 -46.82 39.51 -51.89 39.57 C-56.77 39.63 -61.65 39.69 -66.53 39.75 C-68.4 39.77 -70.26 39.79 -72.13 39.81 C-74.73 39.85 -77.34 39.88 -79.95 39.91 C-80.72 39.92 -81.5 39.93 -82.3 39.94 C-85.2 39.97 -88.1 40 -91 40 C-90.67 39.01 -90.34 38.02 -90 37 C-48.42 36.5 -48.42 36.5 -6 36 C-6 30.06 -6 24.12 -6 18 C-7.95 16.05 -11.7 16.82 -14.37 16.79 C-15.52 16.78 -15.52 16.78 -16.7 16.76 C-19.26 16.73 -21.82 16.71 -24.38 16.68 C-26.15 16.66 -27.92 16.64 -29.69 16.62 C-34.36 16.57 -39.02 16.52 -43.69 16.47 C-48.45 16.42 -53.21 16.36 -57.97 16.31 C-67.31 16.2 -76.66 16.1 -86 16 C-86.33 15.34 -86.66 14.68 -87 14 C-62.25 14 -37.5 14 -12 14 C-12.5 11.03 -12.5 11.03 -13 8 C-11 6 -11 6 -9.05 5.8 C-7.04 5.87 -5.02 5.93 -3 6 C-2.54 4.79 -2.54 4.79 -2.06 3.56 C-1 1 -1 1 0 0 Z " fill="#191B1A" transform="translate(844,63)"/>
    <path d="M0 0 C2.38 2.5 2.38 2.5 4 5 C3.53 5.91 3.05 6.81 2.56 7.75 C0.99 10.71 0.99 10.71 0.56 12.94 C-0.78 17.86 -4.08 22.15 -6.94 26.31 C-10.1 30.99 -12.59 35.9 -15 41 C-15.66 41 -16.32 41 -17 41 C-17.09 42.02 -17.09 42.02 -17.19 43.06 C-18.07 46.24 -19.55 48.22 -21.52 50.82 C-24.53 55.25 -26.7 60.18 -29 65 C-29.33 64.34 -29.66 63.68 -30 63 C-30.33 64.65 -30.66 66.3 -31 68 C-31.66 68 -32.32 68 -33 68 C-33 69.32 -33 70.64 -33 72 C-33.66 72 -34.32 72 -35 72 C-35.33 73.65 -35.66 75.3 -36 77 C-37.98 77.5 -37.98 77.5 -40 78 C-39.34 78.33 -38.68 78.66 -38 79 C-40.87 85.23 -43.48 89.33 -50 92 C-50.33 91.67 -50.66 91.34 -51 91 C-51 91.33 -51 91.66 -51 92 C-55.12 92.33 -57.57 92.21 -61.31 90.38 C-65.45 86.72 -65.89 83.63 -66.25 78.25 C-66 75 -66 75 -64 73 C-63.13 73.99 -62.27 74.98 -61.38 76 C-58.98 78.39 -58.27 78.95 -54.81 79.56 C-51.63 78.93 -50.89 78.58 -49 76 C-48.04 74.76 -48.04 74.76 -47.06 73.5 C-45.2 70.67 -44.15 67.77 -43.06 64.56 C-41.6 60.31 -39.92 57.08 -37.16 53.55 C-35.79 51.82 -35.79 51.82 -34.44 48.81 C-33 46 -33 46 -31 44.12 C-28.19 41.14 -27.3 37.84 -26 34 C-23.96 28.49 -21.14 24.25 -17.7 19.48 C-15.41 16.14 -13.69 12.67 -12 9 C-11.3 7.52 -10.59 6.04 -9.88 4.56 C-9.56 3.9 -9.25 3.25 -8.93 2.57 C-6.9 -0.86 -3.59 -0.43 0 0 Z " fill="#191B1B" transform="translate(226,36)"/>
    <path d="M0 0 C0.66 0 1.32 0 2 0 C3.15 2.3 3.14 3.62 3.15 6.17 C3.16 7.05 3.17 7.92 3.18 8.82 C3.18 9.79 3.19 10.75 3.19 11.74 C3.2 12.75 3.21 13.76 3.22 14.8 C3.24 18.16 3.26 21.52 3.27 24.88 C3.28 26.03 3.28 27.18 3.29 28.36 C3.32 34.43 3.34 40.5 3.35 46.57 C3.37 52.84 3.41 59.11 3.46 65.38 C3.5 70.2 3.51 75.02 3.51 79.84 C3.52 82.15 3.54 84.46 3.56 86.77 C3.59 90.01 3.59 93.25 3.58 96.48 C3.6 97.43 3.62 98.38 3.63 99.36 C3.57 105.74 2.17 110.1 -2 115 C-5.89 117.52 -10.47 117.73 -15 117 C-18.94 114.92 -21.59 112.75 -24 109 C-24.5 109.99 -24.5 109.99 -25 111 C-25.13 87.98 -24.86 65.01 -24 42 C-23.67 42 -23.34 42 -23 42 C-22.98 43.2 -22.96 44.39 -22.94 45.62 C-22.86 50.06 -22.78 54.49 -22.68 58.93 C-22.64 60.84 -22.61 62.76 -22.58 64.68 C-22.53 67.44 -22.47 70.2 -22.41 72.96 C-22.4 74.25 -22.4 74.25 -22.38 75.56 C-22.36 76.36 -22.34 77.16 -22.32 77.99 C-22.31 78.69 -22.29 79.4 -22.28 80.12 C-22.09 82.33 -22.09 82.33 -20 85 C-19.39 88.05 -18.99 91.11 -18.56 94.19 C-18.15 97.19 -18.15 97.19 -16 100 C-13.13 100.67 -13.13 100.67 -10 100 C-5.94 97.05 -4.49 94.3 -3.38 89.46 C-2.6 84.42 -2.74 79.34 -2.77 74.25 C-2.77 73.04 -2.77 71.82 -2.77 70.58 C-2.77 68.02 -2.78 65.47 -2.79 62.91 C-2.81 59.01 -2.81 55.12 -2.81 51.22 C-2.82 48.73 -2.83 46.24 -2.83 43.75 C-2.83 42.59 -2.83 41.43 -2.84 40.24 C-2.87 34.4 -3.12 28.77 -4 23 C-5.98 23 -7.96 23 -10 23 C-10.29 23.62 -10.58 24.24 -10.88 24.88 C-12 27 -12 27 -14 29 C-16.62 28.62 -16.62 28.62 -19 28 C-18.86 22.44 -16.53 20.01 -12.91 16.17 C-10.32 13.23 -8.31 10.02 -6.26 6.69 C-5.64 5.85 -5.64 5.85 -5 5 C-4.34 5 -3.68 5 -3 5 C-2.69 4.36 -2.38 3.72 -2.06 3.06 C-1 1 -1 1 0 0 Z " fill="#171919" transform="translate(646,11)"/>
    <path d="M0 0 C2.01 0.1 4.01 0.16 6.02 0.17 C7.24 0.19 8.45 0.2 9.7 0.21 C11.66 0.23 11.66 0.23 13.66 0.25 C15.02 0.26 16.38 0.28 17.74 0.29 C23.49 0.37 29.25 0.43 35.01 0.48 C38.53 0.51 42.06 0.55 45.58 0.6 C47.58 0.62 49.58 0.63 51.58 0.65 C52.78 0.66 53.99 0.68 55.24 0.7 C56.84 0.71 56.84 0.71 58.47 0.73 C61 1 61 1 63 3 C63.23 5.52 63.23 5.52 63.2 8.66 C63.19 9.79 63.18 10.91 63.18 12.06 C63.15 13.83 63.15 13.83 63.12 15.62 C63.12 16.81 63.11 17.99 63.1 19.21 C63.07 22.14 63.04 25.07 63 28 C62.34 28 61.68 28 61 28 C61 28.66 61 29.32 61 30 C50.77 30 40.54 30 30 30 C30 30.66 30 31.32 30 32 C29.01 31.51 29.01 31.51 28 31 C28.66 29.68 29.32 28.36 30 27 C39.9 27 49.8 27 60 27 C59.67 19.08 59.34 11.16 59 3 C50.93 2.98 42.87 2.96 34.8 2.95 C31.06 2.94 27.31 2.94 23.56 2.92 C19.95 2.91 16.34 2.91 12.73 2.91 C11.35 2.9 9.97 2.9 8.59 2.89 C6.66 2.89 4.73 2.89 2.8 2.89 C1.71 2.88 0.61 2.88 -0.53 2.88 C-2.94 2.72 -2.94 2.72 -4 4 C-4.1 6.68 -4.14 9.33 -4.14 12 C-4.15 12.84 -4.15 13.68 -4.15 14.55 C-4.16 16.38 -4.17 18.21 -4.17 20.03 C-4.18 22.93 -4.19 25.83 -4.21 28.72 C-4.26 36.96 -4.31 45.2 -4.33 53.43 C-4.34 58.46 -4.37 63.5 -4.41 68.53 C-4.42 70.45 -4.42 72.37 -4.42 74.28 C-4.42 76.97 -4.44 79.66 -4.47 82.35 C-4.46 83.14 -4.46 83.93 -4.45 84.74 C-4.54 89.93 -5.58 92.88 -9 97 C-13.77 100.25 -17.41 100.53 -23 100 C-26 98.63 -26 98.63 -28 97 C-28 96.34 -28 95.68 -28 95 C-27.25 94.94 -26.5 94.88 -25.73 94.82 C-24.75 94.73 -23.76 94.65 -22.75 94.56 C-21.78 94.48 -20.8 94.4 -19.8 94.32 C-17.44 94.05 -15.28 93.65 -13 93 C-13.33 91.68 -13.66 90.36 -14 89 C-16.97 89.5 -16.97 89.5 -20 90 C-20 87 -20 87 -17.69 84.62 C-16.8 83.76 -15.91 82.89 -15 82 C-12.06 77.99 -11.62 75.12 -11.6 70.19 C-11.59 69.53 -11.59 68.87 -11.58 68.18 C-11.56 66 -11.56 63.81 -11.56 61.63 C-11.55 60.1 -11.53 58.58 -11.52 57.05 C-11.48 53.04 -11.46 49.03 -11.45 45.02 C-11.42 38.61 -11.38 32.19 -11.33 25.78 C-11.31 23.54 -11.31 21.31 -11.3 19.07 C-11.29 17.69 -11.28 16.31 -11.27 14.94 C-11.27 13.74 -11.26 12.54 -11.26 11.31 C-10.99 7.87 -10.34 5.18 -9 2 C-5.51 -0.85 -4.16 -1.08 0 0 Z " fill="#161818" transform="translate(369,28)"/>
    <path d="M0 0 C2.5 0.31 2.5 0.31 5 1 C6.32 3.63 6.17 5.66 6.22 8.61 C6.25 9.78 6.27 10.96 6.29 12.17 C6.36 17.56 6.42 22.95 6.46 28.35 C6.48 31.19 6.52 34.03 6.58 36.87 C6.67 40.97 6.7 45.07 6.72 49.16 C6.75 50.43 6.78 51.69 6.82 53 C6.8 60.22 6.05 64.41 0.91 69.64 C-2.39 72 -5.48 72.14 -9.44 72.06 C-10.15 72.08 -10.86 72.1 -11.6 72.12 C-16.47 72.21 -21.21 71.87 -26 71 C-28.5 68.44 -28.5 68.44 -30 66 C-29.44 65.75 -28.89 65.5 -28.31 65.25 C-24.29 63.08 -21.46 60.63 -18.75 56.94 C-16.09 53.59 -13.18 52.79 -9.16 51.65 C-6.45 50.84 -4.29 49.64 -2 48 C-0.82 45.65 -0.89 44.28 -0.9 41.66 C-0.91 40.31 -0.91 40.31 -0.91 38.94 C-0.92 37.97 -0.93 37 -0.94 36 C-0.94 35 -0.95 34.01 -0.95 32.99 C-0.96 29.8 -0.98 26.62 -1 23.44 C-1.03 19.25 -1.05 15.06 -1.06 10.87 C-1.07 9.9 -1.08 8.93 -1.09 7.92 C-1.09 7.03 -1.09 6.13 -1.1 5.21 C-1.11 4.03 -1.11 4.03 -1.11 2.82 C-1 1 -1 1 0 0 Z M-6 69 C-6 69.33 -6 69.66 -6 70 C-4.35 70 -2.7 70 -1 70 C-1 69.67 -1 69.34 -1 69 C-2.65 69 -4.3 69 -6 69 Z " fill="#161818" transform="translate(452,10)"/>
    <path d="M0 0 C1.06 -0.02 2.11 -0.04 3.2 -0.06 C9.08 -0.06 13.33 0.46 18.44 3.43 C21.87 5.41 25.77 6.28 29.55 7.41 C32.15 8.42 33.42 9.31 35.19 11.44 C36.84 10.78 38.49 10.12 40.19 9.44 C38.44 13.31 38.44 13.31 36.19 14.44 C33.88 14.56 31.57 14.61 29.26 14.63 C28.55 14.64 27.84 14.65 27.1 14.66 C24.74 14.68 22.38 14.7 20.02 14.71 C18.8 14.72 18.8 14.72 17.57 14.73 C13.3 14.75 9.02 14.77 4.75 14.79 C0.34 14.8 -4.07 14.85 -8.48 14.9 C-11.87 14.93 -15.27 14.95 -18.66 14.95 C-20.28 14.96 -21.91 14.97 -23.53 15 C-25.81 15.03 -28.09 15.03 -30.37 15.02 C-32.31 15.03 -32.31 15.03 -34.3 15.05 C-38.96 14.24 -40.59 12.88 -43.81 9.44 C-43.69 5.62 -43.69 5.62 -42.81 2.44 C-39.33 3.08 -36.72 4.42 -33.81 6.44 C-33.81 7.1 -33.81 7.76 -33.81 8.44 C-32.86 7.98 -31.91 7.53 -30.94 7.06 C-27.12 5.4 -23.34 4.69 -19.24 4.06 C-16.72 3.55 -16.72 3.55 -14.5 1.93 C-9.91 -0.62 -5.14 -0.03 0 0 Z " fill="#171918" transform="translate(46.8125,62.5625)"/>
    <path d="M0 0 C2.14 1.44 3.86 2.79 5.69 4.62 C6.93 11.32 7.35 17.23 4.31 23.44 C3.78 24.16 3.24 24.88 2.69 25.62 C1.7 25.62 0.71 25.62 -0.31 25.62 C-0.31 26.28 -0.31 26.94 -0.31 27.62 C-2.56 27.68 -4.81 27.72 -7.06 27.75 C-8.32 27.77 -9.57 27.8 -10.86 27.82 C-14.06 27.64 -15.72 27.42 -18.31 25.62 C-19.44 23.56 -19.44 23.56 -20.31 21.62 C-20.97 21.3 -21.63 20.97 -22.31 20.62 C-22.45 18.06 -22.55 15.5 -22.62 12.94 C-22.67 12.22 -22.71 11.5 -22.75 10.75 C-22.85 6.57 -22.68 5.09 -19.97 1.69 C-13.76 -3.13 -6.78 -4.16 0 0 Z " fill="#1A1C1C" transform="translate(24.3125,98.375)"/>
    <path d="M0 0 C0.99 0 1.98 0 3 0 C3 37.95 3 75.9 3 115 C0.69 115 -1.62 115 -4 115 C-5.03 116.31 -6.03 117.65 -7 119 C-10.19 119.25 -10.19 119.25 -13 119 C-13.5 115.81 -13.5 115.81 -13 112 C-11.29 110.7 -11.29 110.7 -9.12 109.56 C-5.74 107.69 -5.13 107.28 -3.44 103.56 C-2.57 98.4 -3.28 93.15 -3.81 87.98 C-4 85 -4 85 -3 83 C-2.91 80.87 -2.89 78.73 -2.9 76.6 C-2.9 75.94 -2.91 75.28 -2.91 74.61 C-2.91 73.18 -2.92 71.75 -2.92 70.32 C-2.94 68.04 -2.94 65.77 -2.95 63.5 C-2.96 57.85 -2.99 52.2 -3.01 46.56 C-3.03 41.79 -3.05 37.03 -3.06 32.27 C-3.06 30.05 -3.07 27.83 -3.09 25.6 C-3.16 5.71 -3.16 5.71 0 0 Z " fill="#161818" transform="translate(1100,8)"/>
    <path d="M0 0 C1.67 0.65 3.34 1.32 5 2 C6.12 2.44 6.12 2.44 7.27 2.88 C8.06 3.21 8.86 3.54 9.69 3.88 C10.45 4.18 11.22 4.49 12.01 4.8 C14.38 6.23 15.01 7.47 16 10 C7.74 15.74 7.74 15.74 3 15 C2.67 17.64 2.34 20.28 2 23 C34.67 23 67.34 23 101 23 C101 23.33 101 23.66 101 24 C88 24.05 74.99 24.08 61.99 24.1 C55.95 24.11 49.91 24.13 43.88 24.15 C38.05 24.17 32.23 24.18 26.41 24.19 C24.18 24.19 21.96 24.2 19.73 24.21 C16.62 24.23 13.51 24.23 10.41 24.23 C9.01 24.24 9.01 24.24 7.59 24.25 C6.75 24.25 5.91 24.24 5.04 24.24 C4.3 24.24 3.57 24.24 2.81 24.25 C1 24 1 24 -1 22 C-1.97 21.61 -2.94 21.22 -3.94 20.81 C-7.92 18.45 -8.69 16.38 -10 12 C-9.69 9.56 -9.69 9.56 -9 8 C-8.67 8 -8.34 8 -8 8 C-7.34 6.02 -6.68 4.04 -6 2 C-4.79 1.78 -4.79 1.78 -3.56 1.56 C-1.08 1.26 -1.08 1.26 0 0 Z " fill="#131514" transform="translate(756,104)"/>
    <path d="M0 0 C0.33 0 0.66 0 1 0 C1 1.65 1 3.3 1 5 C1.99 5.33 2.98 5.66 4 6 C5.53 9.07 5.39 12.3 5.62 15.69 C5.8 18.19 5.8 18.19 8 20 C8.01 22.03 8.01 22.03 7.69 24.5 C7.25 28.02 6.89 31.52 6.62 35.06 C6.22 39.34 5.12 43.01 3.52 46.99 C2.89 49.42 3.32 50.61 4 53 C4.74 65.37 4.74 65.37 2 71 C1.01 71.5 1.01 71.5 0 72 C-1.44 69.13 -1.13 66.66 -1.13 63.45 C-1.13 62.78 -1.13 62.11 -1.13 61.42 C-1.14 59.19 -1.14 56.97 -1.13 54.75 C-1.13 53.2 -1.13 51.66 -1.14 50.12 C-1.14 46.89 -1.14 43.66 -1.13 40.42 C-1.12 36.27 -1.13 32.12 -1.13 27.97 C-1.14 24.78 -1.14 21.6 -1.13 18.42 C-1.13 16.89 -1.13 15.35 -1.14 13.82 C-1.14 11.69 -1.13 9.55 -1.13 7.42 C-1.13 6.2 -1.13 4.98 -1.13 3.73 C-1 1 -1 1 0 0 Z " fill="#1B1D1D" transform="translate(1254,9)"/>
    <path d="M0 0 C4 4 4 4 4.44 7.79 C4.43 9.31 4.4 10.83 4.36 12.34 C4.35 13.15 4.34 13.96 4.33 14.79 C4.3 17.36 4.25 19.93 4.19 22.5 C4.14 25.07 4.11 27.64 4.08 30.21 C4.05 31.81 4.03 33.41 3.99 35.01 C3.93 38.55 4.1 41.59 5 45 C5.09 46.66 5.13 48.33 5.12 50 C5.13 50.85 5.13 51.69 5.13 52.56 C5 55 5 55 4.5 56.65 C3.76 60.11 3.84 63.56 3.83 67.09 C3.83 67.87 3.83 68.65 3.82 69.46 C3.82 71.11 3.81 72.76 3.81 74.41 C3.81 76.93 3.79 79.44 3.78 81.96 C3.77 83.57 3.77 85.17 3.77 86.78 C3.76 87.53 3.76 88.28 3.75 89.05 C3.77 93.18 4.26 96.26 6 100 C6.25 102.69 6.25 102.69 6 105 C5.01 105.99 5.01 105.99 4 107 C3.01 107 2.02 107 1 107 C0.51 107.99 0.51 107.99 0 109 C0 73.03 0 37.06 0 0 Z " fill="#1B1D1D" transform="translate(1151,10)"/>
    <path d="M0 0 C1.33 -0.04 1.33 -0.04 2.68 -0.09 C8.51 -0.14 11.63 0.54 16.12 4.31 C17.12 5.31 17.12 5.31 17.25 7.81 C17.12 10.31 17.12 10.31 16.12 11.31 C13.24 11.4 10.38 11.43 7.5 11.41 C6.2 11.41 6.2 11.41 4.88 11.41 C2.11 11.4 -0.67 11.39 -3.44 11.38 C-5.31 11.37 -7.19 11.37 -9.06 11.36 C-13.67 11.35 -18.27 11.33 -22.88 11.31 C-22.88 9.66 -22.88 8.01 -22.88 6.31 C-21.46 5.49 -20.04 4.68 -18.62 3.88 C-17.44 3.2 -17.44 3.2 -16.23 2.5 C-11 -0.14 -5.75 0.06 0 0 Z " fill="#191B1A" transform="translate(803.875,64.6875)"/>
    <path d="M0 0 C1.32 -0.01 2.64 -0.02 4 -0.03 C5.43 -0.03 6.86 -0.04 8.29 -0.04 C9.38 -0.05 9.38 -0.05 10.49 -0.05 C14.33 -0.07 18.17 -0.07 22.01 -0.08 C25.96 -0.08 29.92 -0.11 33.87 -0.14 C36.92 -0.16 39.97 -0.16 43.03 -0.16 C44.48 -0.17 45.94 -0.17 47.4 -0.19 C61.82 -0.31 61.82 -0.31 67.39 3.16 C69.69 6.61 69.93 9.1 70.39 13.16 C68.39 12.16 68.39 12.16 67.08 8.66 C66.52 7.51 65.97 6.35 65.39 5.16 C61.43 3.85 57.36 4.04 53.22 4.05 C52.51 4.05 51.81 4.05 51.09 4.05 C48.78 4.05 46.47 4.06 44.15 4.06 C42.55 4.07 40.94 4.07 39.33 4.07 C35.11 4.07 30.89 4.08 26.67 4.09 C22.36 4.1 18.05 4.11 13.74 4.11 C5.29 4.12 -3.16 4.14 -11.61 4.16 C-11.61 4.82 -11.61 5.48 -11.61 6.16 C-10.62 5.83 -9.63 5.5 -8.61 5.16 C-8.33 6.09 -8.33 6.09 -8.04 7.04 C-6.68 9.55 -6.68 9.55 -3.11 10.16 C0.39 11.16 0.39 11.16 1.83 13.29 C2.02 13.9 2.2 14.52 2.39 15.16 C1.73 15.82 1.07 16.48 0.39 17.16 C-3.23 16.79 -3.23 16.79 -6.61 16.16 C-7.27 14.51 -7.93 12.86 -8.61 11.16 C-10.26 11.49 -11.91 11.82 -13.61 12.16 C-13.94 14.8 -14.27 17.44 -14.61 20.16 C-15.27 19.83 -15.93 19.5 -16.61 19.16 C-16.74 16.91 -16.84 14.66 -16.92 12.41 C-17.01 10.53 -17.01 10.53 -17.1 8.61 C-16.61 5.16 -16.61 5.16 -14.4 2.77 C-9.72 0.08 -5.32 0.03 0 0 Z " fill="#505252" transform="translate(18.60693359375,49.8388671875)"/>
    <path d="M0 0 C5.67 0.65 9.46 5.26 12.88 9.44 C15.02 12.04 17.18 13.98 19.94 15.94 C23.75 18.64 26.6 21.76 29.55 25.36 C30.92 27.12 30.92 27.12 33 28 C33 28.66 33 29.32 33 30 C33.66 30.33 34.32 30.66 35 31 C34.67 31.99 34.34 32.98 34 34 C34.66 34 35.32 34 36 34 C36 34.66 36 35.32 36 36 C37.32 36.66 38.64 37.32 40 38 C39.51 38.99 39.51 38.99 39 40 C38.01 39.51 38.01 39.51 37 39 C36.01 39.33 35.02 39.66 34 40 C33.01 39.67 32.02 39.34 31 39 C30.71 38.26 30.42 37.52 30.12 36.75 C27.86 31.22 22.87 28.04 18.18 24.61 C15.89 22.92 13.66 21.15 11.44 19.38 C8.77 17.28 6.2 15.49 3.19 13.94 C-0.45 11.73 -2.02 9.73 -4 6 C-4 5.01 -4 4.02 -4 3 C-3.01 3 -2.02 3 -1 3 C-0.67 2.01 -0.34 1.02 0 0 Z " fill="#242626" transform="translate(1182,18)"/>
    <path d="M0 0 C0.66 0.66 1.32 1.32 2 2 C0.71 3.38 -0.63 4.71 -2 6 C-2.66 6 -3.32 6 -4 6 C-3.67 43.62 -3.34 81.24 -3 120 C-3.66 120 -4.32 120 -5 120 C-5 119.34 -5 118.68 -5 118 C-5.66 118 -6.32 118 -7 118 C-7.16 103.5 -7.29 89 -7.36 74.5 C-7.4 67.77 -7.45 61.04 -7.53 54.3 C-7.61 47.81 -7.65 41.31 -7.66 34.81 C-7.68 32.33 -7.7 29.86 -7.74 27.38 C-7.79 23.9 -7.8 20.43 -7.79 16.96 C-7.82 15.94 -7.85 14.91 -7.87 13.85 C-7.8 7 -7.8 7 -5.39 3.99 C-3.66 2.49 -1.95 1.2 0 0 Z " fill="#010303" transform="translate(1155,3)"/>
    <path d="M0 0 C2.48 0.99 2.48 0.99 5 2 C5 2.33 5 2.66 5 3 C3.35 3 1.7 3 0 3 C0 3.66 0 4.32 0 5 C-0.66 5 -1.32 5 -2 5 C-1.67 42.29 -1.34 79.58 -1 118 C0.32 118.66 1.64 119.32 3 120 C2.01 120.99 2.01 120.99 1 122 C-1 122 -1 122 -3.09 120.16 C-5.85 115.59 -5.54 111.64 -5.49 106.4 C-5.49 105.33 -5.49 104.26 -5.5 103.16 C-5.5 99.64 -5.48 96.11 -5.46 92.59 C-5.46 90.14 -5.46 87.69 -5.46 85.24 C-5.46 80.11 -5.44 74.98 -5.41 69.85 C-5.38 63.26 -5.37 56.68 -5.37 50.1 C-5.37 45.04 -5.36 39.98 -5.35 34.92 C-5.34 32.5 -5.34 30.07 -5.33 27.64 C-5.33 24.25 -5.31 20.86 -5.29 17.47 C-5.29 16.47 -5.29 15.46 -5.29 14.42 C-5.28 13.5 -5.28 12.58 -5.27 11.62 C-5.26 10.82 -5.26 10.02 -5.26 9.2 C-4.78 5.16 -2.95 2.68 0 0 Z " fill="#000202" transform="translate(915,4)"/>
    <path d="M0 0 C2.14 1.44 3.86 2.79 5.69 4.62 C5.81 8.25 5.81 8.25 5.69 11.62 C3.69 10.62 3.69 10.62 2.69 7.62 C2.07 8.59 1.45 9.56 0.81 10.56 C-1.31 13.62 -1.31 13.62 -3.31 14.62 C-10.44 15.21 -10.44 15.21 -14.31 12.62 C-14.97 11.97 -15.63 11.31 -16.31 10.62 C-17.3 11.28 -18.29 11.94 -19.31 12.62 C-19.68 14.83 -19.68 14.83 -19.5 17.25 C-19.47 18.07 -19.45 18.88 -19.42 19.73 C-19.38 20.35 -19.35 20.98 -19.31 21.62 C-20.3 21.3 -21.29 20.97 -22.31 20.62 C-22.45 18.06 -22.55 15.5 -22.62 12.94 C-22.67 12.22 -22.71 11.5 -22.75 10.75 C-22.85 6.57 -22.68 5.09 -19.97 1.69 C-13.76 -3.13 -6.78 -4.16 0 0 Z " fill="#161817" transform="translate(24.3125,98.375)"/>
    <path d="M0 0 C0.66 0 1.32 0 2 0 C2 0.66 2 1.32 2 2 C2.99 2.33 3.98 2.66 5 3 C6.02 3.98 7.02 4.98 8 6 C8.99 6.66 9.98 7.32 11 8 C13.58 10.1 14.68 11.03 16 14 C16.43 19.04 16.29 23.96 16 29 C15.34 29 14.68 29 14 29 C13.67 30.32 13.34 31.64 13 33 C9.84 33.94 7.03 34.11 3.75 34.06 C2.86 34.05 1.97 34.04 1.05 34.04 C0.37 34.02 -0.3 34.01 -1 34 C-2.56 30.88 -1.67 28.33 -1 25 C1.86 23.57 3.93 24.4 7 25 C7.47 21.84 7.42 19.7 5.77 16.93 C3.76 14.25 1.8 11.71 -0.71 9.49 C-2 8 -2 8 -1.75 4.38 C-1 1 -1 1 0 0 Z " fill="#1E2020" transform="translate(1018,93)"/>
    <path d="M0 0 C2.89 0.34 4.53 0.56 7 2 C8.6 4.43 9.72 6.89 10.89 9.55 C11.93 12.13 11.93 12.13 14 14.44 C16.63 17.81 18.09 21.46 19.75 25.38 C20.94 27.88 22.34 29.8 24 32 C24.77 33.96 24.77 33.96 25.38 35.94 C26.78 39.94 28.87 42.12 32 45 C33.76 47.55 34.05 48.52 33.75 51.62 C33 54 33 54 31 56 C31.66 56 32.32 56 33 56 C32.5 56.99 32.5 56.99 32 58 C31.34 58 30.68 58 30 58 C28.73 54.35 27.67 50.81 27 47 C26.01 47 25.02 47 24 47 C23.9 46.4 23.79 45.8 23.69 45.19 C23.18 42.95 23.18 42.95 21.55 41.61 C19.81 39.8 19.27 38.44 18.5 36.06 C17.4 32.89 16.07 30.66 14 28 C14 27.01 14 26.02 14 25 C13.01 24.67 12.02 24.34 11 24 C10.67 23.01 10.34 22.02 10 21 C9.34 20.67 8.68 20.34 8 20 C6.93 17.71 6.93 17.71 5.88 14.94 C5.52 14.02 5.17 13.1 4.8 12.15 C4.54 11.44 4.27 10.73 4 10 C3.34 10 2.68 10 2 10 C0.68 6.38 0 3.9 0 0 Z " fill="#151717" transform="translate(234,50)"/>
    <path d="M0 0 C0.99 0.33 1.98 0.66 3 1 C3 36.31 3 71.62 3 108 C2.01 108 1.02 108 0 108 C0 72.36 0 36.72 0 0 Z " fill="#000202" transform="translate(507,11)"/>
    <path d="M0 0 C0.99 0 1.98 0 3 0 C3.22 4.04 3.41 8.08 3.59 12.12 C3.66 13.49 3.72 14.86 3.8 16.23 C3.91 18.21 3.99 20.19 4.07 22.17 C4.16 23.95 4.16 23.95 4.25 25.77 C3.97 29.39 3.19 31.13 1 34 C0.01 34.66 -0.98 35.32 -2 36 C-2 33 -2 33 -0.56 31.5 C-0.05 31 0.47 30.51 1 30 C1.33 29.01 1.66 28.02 2 27 C-0.31 27.33 -2.62 27.66 -5 28 C-5 30.64 -5 33.28 -5 36 C-6.65 36 -8.3 36 -10 36 C-9.98 35.09 -9.96 34.19 -9.94 33.25 C-9.99 30.57 -10.22 28.53 -11 26 C-8.69 25.34 -6.38 24.68 -4 24 C-3.58 21.67 -3.58 21.67 -4 19 C-6.21 16.9 -6.21 16.9 -9 15 C-10.69 13.35 -12.36 11.69 -14 10 C-14.33 9.67 -14.66 9.34 -15 9 C-15.04 7 -15.04 5 -15 3 C-14.35 3.67 -14.35 3.67 -13.68 4.35 C-11.85 6.09 -10.12 7.63 -8 9 C-4.65 9.04 -4.65 9.04 -2 8 C-1.34 5.36 -0.68 2.72 0 0 Z " fill="#1B1D1D" transform="translate(1272,91)"/>
    <path d="M0 0 C1.32 0 2.64 0 4 0 C4 0.66 4 1.32 4 2 C3.01 2.49 3.01 2.49 2 3 C1.67 26.1 1.34 49.2 1 73 C0.67 72.34 0.34 71.68 0 71 C-0.99 70.67 -1.98 70.34 -3 70 C-3.22 68.3 -3.22 68.3 -3.44 66.56 C-3.61 63.19 -3.61 63.19 -5 62 C-4.79 60.16 -4.57 58.32 -4.32 56.48 C-2.79 44.7 -2.26 32.75 -3.69 20.94 C-4.37 14.05 -2.91 7.61 -1 1 C-0.67 0.67 -0.34 0.34 0 0 Z " fill="#1B1D1D" transform="translate(1171,49)"/>
    <path d="M0 0 C3.11 1.11 3.61 2.06 5.04 5 C5.46 5.83 5.89 6.67 6.32 7.53 C6.74 8.41 7.16 9.29 7.6 10.19 C8.45 11.92 9.31 13.65 10.17 15.37 C10.54 16.14 10.91 16.91 11.29 17.7 C12.51 19.95 13.91 21.87 15.47 23.88 C17.04 26.6 17.47 27.68 17.47 30.88 C18.46 31.21 19.45 31.54 20.47 31.88 C20.14 33.2 19.81 34.52 19.47 35.88 C17 36.38 17 36.38 14.47 36.88 C11.93 34.08 10.56 32.22 9.66 28.51 C8.45 24.81 7.79 23.99 5.04 21.51 C1.57 18.31 0.39 15.6 -0.84 11.1 C-1.89 7.69 -3.66 4.91 -5.53 1.88 C-2.53 -0.12 -2.53 -0.12 0 0 Z " fill="#191B1B" transform="translate(255.52685546875,36.117919921875)"/>
    <path d="M0 0 C1.32 0.66 2.64 1.32 4 2 C3.28 2.56 2.56 3.11 1.81 3.69 C-0.97 5.98 -3.49 8.41 -6 11 C-5.5 11.99 -5.5 11.99 -5 13 C-9.04 21.19 -17.07 27.28 -23.91 33.13 C-28.12 36.89 -32.04 40.97 -36 45 C-36.66 44.67 -37.32 44.34 -38 44 C-37.43 43.44 -36.87 42.88 -36.29 42.3 C-33.73 39.77 -31.18 37.23 -28.62 34.69 C-27.74 33.81 -26.85 32.93 -25.93 32.02 C-25.08 31.17 -24.23 30.32 -23.35 29.45 C-22.57 28.67 -21.78 27.89 -20.97 27.08 C-18.85 24.96 -18.85 24.96 -17 22 C-16.34 22 -15.68 22 -15 22 C-15.33 21.34 -15.66 20.68 -16 20 C-24.91 28.91 -33.82 37.82 -43 47 C-43.66 46.34 -44.32 45.68 -45 45 C-30.15 30.15 -15.3 15.3 0 0 Z " fill="#151717" transform="translate(626,4)"/>
    <path d="M0 0 C8.44 -0.05 16.88 -0.08 25.32 -0.1 C29.24 -0.11 33.16 -0.13 37.08 -0.15 C40.86 -0.17 44.64 -0.18 48.42 -0.19 C49.86 -0.19 51.31 -0.2 52.75 -0.21 C54.77 -0.23 56.79 -0.23 58.81 -0.23 C60.53 -0.23 60.53 -0.23 62.29 -0.24 C65 0 65 0 67 2 C67.23 4.52 67.23 4.52 67.2 7.66 C67.19 8.79 67.18 9.91 67.18 11.06 C67.15 12.83 67.15 12.83 67.12 14.62 C67.12 15.81 67.11 16.99 67.1 18.21 C67.07 21.14 67.04 24.07 67 27 C66.34 27 65.68 27 65 27 C65 27.66 65 28.32 65 29 C54.77 29 44.54 29 34 29 C34 29.66 34 30.32 34 31 C33.34 30.67 32.68 30.34 32 30 C32.66 28.68 33.32 27.36 34 26 C43.9 26 53.8 26 64 26 C63.67 18.08 63.34 10.16 63 2 C42.21 1.67 21.42 1.34 0 1 C0 0.67 0 0.34 0 0 Z " fill="#000202" transform="translate(365,29)"/>
    <path d="M0 0 C0.66 0 1.32 0 2 0 C2.14 9.02 2.25 18.05 2.31 27.07 C2.34 31.26 2.38 35.45 2.45 39.64 C2.52 43.69 2.55 47.73 2.57 51.78 C2.58 53.32 2.6 54.86 2.63 56.4 C2.88 68.52 2.88 68.52 0.62 72.32 C-1.04 73.99 -1.04 73.99 -4 76 C-4.66 75.67 -5.32 75.34 -6 75 C-5.34 73.35 -4.68 71.7 -4 70 C-3.01 70 -2.02 70 -1 70 C-1 69.14 -1 68.28 -1.01 67.39 C-1.03 59.28 -1.04 51.17 -1.05 43.06 C-1.06 38.89 -1.06 34.72 -1.08 30.56 C-1.09 26.54 -1.09 22.52 -1.09 18.5 C-1.1 16.96 -1.1 15.42 -1.11 13.88 C-1.11 11.74 -1.11 9.59 -1.11 7.45 C-1.12 6.22 -1.12 5 -1.12 3.74 C-1 1 -1 1 0 0 Z " fill="#000202" transform="translate(1173,51)"/>
    <path d="M0 0 C0.66 0 1.32 0 2 0 C2 14.52 2 29.04 2 44 C1.01 44 0.02 44 -1 44 C-3.79 40.42 -4.38 37.69 -4.36 33.21 C-4.36 32.1 -4.36 31 -4.36 29.86 C-4.35 28.71 -4.33 27.56 -4.31 26.38 C-4.32 25.25 -4.32 24.12 -4.32 22.96 C-4.2 4.2 -4.2 4.2 0 0 Z " fill="#1A1C1C" transform="translate(935,77)"/>
    <path d="M0 0 C0.33 0 0.66 0 1 0 C1 21.12 1 42.24 1 64 C3.64 63.67 6.28 63.34 9 63 C9.33 63.33 9.66 63.66 10 64 C11.13 64 12.27 64 13.44 64 C17 64 17 64 19 65 C19 65.99 19 66.98 19 68 C9.59 72.41 9.59 72.41 5 73 C3.35 71.02 1.7 69.04 0 67 C-0.5 67.99 -0.5 67.99 -1 69 C-1.13 45.98 -0.86 23.01 0 0 Z " fill="#101211" transform="translate(622,53)"/>
    <path d="M0 0 C4.88 1.88 4.88 1.88 6 3 C6.15 7.1 5.95 11.21 5.81 15.31 C5.79 16.47 5.78 17.62 5.76 18.81 C5.72 19.92 5.68 21.03 5.64 22.18 C5.62 23.2 5.59 24.22 5.56 25.27 C4.84 28.76 3.9 29.94 1 32 C-1.96 32.58 -1.96 32.58 -5.38 32.68 C-6.61 32.72 -7.84 32.76 -9.11 32.8 C-10.39 32.83 -11.68 32.85 -13 32.88 C-14.28 32.92 -15.57 32.97 -16.89 33.02 C-27.29 33.3 -27.29 33.3 -31 31 C-31 30.34 -31 29.68 -31 29 C-20.77 29 -10.54 29 0 29 C0 28.34 0 27.68 0 27 C0.66 27 1.32 27 2 27 C1.86 22.87 1.71 18.75 1.56 14.62 C1.52 13.45 1.48 12.27 1.44 11.06 C1.4 9.94 1.36 8.82 1.32 7.66 C1.26 6.11 1.26 6.11 1.21 4.52 C1.16 2.01 1.16 2.01 0 0 Z M-33 31 C-32.34 31 -31.68 31 -31 31 C-31.33 31.99 -31.66 32.98 -32 34 C-32.33 33.01 -32.66 32.02 -33 31 Z " fill="#1D1F1F" transform="translate(430,29)"/>
    <path d="M0 0 C0.66 0.33 1.32 0.66 2 1 C3.32 6.23 3.16 11.57 3.17 16.92 C3.17 17.86 3.17 18.8 3.18 19.77 C3.18 21.75 3.19 23.73 3.19 25.71 C3.19 28.75 3.21 31.79 3.22 34.83 C3.23 36.76 3.23 38.68 3.23 40.61 C3.24 41.52 3.24 42.43 3.25 43.37 C3.25 44.21 3.25 45.05 3.24 45.92 C3.24 46.66 3.25 47.4 3.25 48.17 C3 50 3 50 1 52 C-0.49 52.5 -0.49 52.5 -2 53 C-2.9 47.64 -3.12 42.5 -3.06 37.06 C-3.06 36.28 -3.05 35.5 -3.05 34.7 C-3.04 32.8 -3.02 30.9 -3 29 C-2.67 29 -2.34 29 -2 29 C-1.96 27.74 -1.96 27.74 -1.92 26.45 C-1.83 23.33 -1.73 20.21 -1.63 17.09 C-1.58 15.74 -1.54 14.39 -1.5 13.04 C-1.45 11.1 -1.38 9.16 -1.32 7.22 C-1.28 6.05 -1.24 4.89 -1.21 3.68 C-1 1 -1 1 0 0 Z " fill="#1A1C1C" transform="translate(749,16)"/>
    <path d="M0 0 C0.06 3.12 0.09 6.25 0.12 9.38 C0.14 10.26 0.16 11.15 0.18 12.07 C0.18 12.92 0.19 13.77 0.2 14.65 C0.21 15.43 0.22 16.22 0.23 17.03 C0 19 0 19 -2 21 C-2 20.34 -2 19.68 -2 19 C-2.99 18.67 -3.98 18.34 -5 18 C-6 17 -7 16 -8 15 C-8.99 14.67 -9.98 14.34 -11 14 C-11.65 8.8 -10.12 5.91 -7.48 1.64 C-5.16 -0.92 -3.11 -1.56 0 0 Z " fill="#1B1D1D" transform="translate(1276,15)"/>
    <path d="M0 0 C6.31 2.91 11.07 6.79 15.62 11.94 C16.32 12.71 16.32 12.71 17.03 13.49 C19.8 16.57 22.56 19.65 25 23 C24.75 25.31 24.75 25.31 24 27 C23.01 27 22.02 27 21 27 C21 26.34 21 25.68 21 25 C20.36 24.73 19.72 24.46 19.06 24.19 C17 23 17 23 16 20 C15.34 20 14.68 20 14 20 C13.6 19.32 13.2 18.63 12.79 17.93 C10.46 14.11 7.5 11.29 4.31 8.19 C3.71 7.59 3.1 6.99 2.47 6.38 C0.99 4.91 -0.51 3.46 -2 2 C-1.34 1.34 -0.68 0.68 0 0 Z " fill="#212323" transform="translate(1212,78)"/>
    <path d="M0 0 C0.66 0.33 1.32 0.66 2 1 C2 1.66 2 2.32 2 3 C1.01 3 0.02 3 -1 3 C-1 3.66 -1 4.32 -1 5 C-1.66 5 -2.32 5 -3 5 C-3.24 5.57 -3.48 6.13 -3.73 6.72 C-5.25 9.45 -7.07 11.33 -9.28 13.55 C-10.12 14.39 -10.96 15.24 -11.83 16.11 C-12.71 16.98 -13.59 17.85 -14.5 18.75 C-15.38 19.64 -16.26 20.53 -17.17 21.44 C-18.01 22.28 -18.85 23.12 -19.72 23.98 C-20.49 24.75 -21.26 25.53 -22.06 26.32 C-24 28 -24 28 -26 28 C-26 28.66 -26 29.32 -26 30 C-26.99 30 -27.98 30 -29 30 C-29 30.66 -29 31.32 -29 32 C-31.5 33.5 -31.5 33.5 -34 35 C-35.82 36.68 -37.59 38.41 -39.31 40.19 C-40.2 41.09 -41.08 41.99 -41.99 42.92 C-42.65 43.61 -43.32 44.29 -44 45 C-44.5 43.52 -44.5 43.52 -45 42 C-43.13 40.08 -41.26 38.16 -39.38 36.25 C-38.85 35.71 -38.33 35.17 -37.79 34.62 C-37.27 34.09 -36.75 33.56 -36.21 33.02 C-35.5 32.29 -35.5 32.29 -34.78 31.56 C-33 30 -33 30 -30.17 28.18 C-26.7 25.8 -23.94 23.18 -21.02 20.18 C-20.47 19.63 -19.93 19.08 -19.37 18.52 C-17.66 16.79 -15.96 15.05 -14.25 13.31 C-12.53 11.56 -10.81 9.82 -9.08 8.07 C-8.01 6.99 -6.95 5.91 -5.88 4.82 C-2.22 1.11 -2.22 1.11 0 0 Z " fill="#090B0B" transform="translate(1010,6)"/>
    <path d="M0 0 C-0.66 0.91 -1.32 1.81 -2 2.75 C-4.35 5.93 -4.35 5.93 -4 10 C-4.68 10.83 -5.36 11.65 -6.06 12.5 C-8.29 14.78 -8.29 14.78 -7.75 17.31 C-7.38 18.15 -7.38 18.15 -7 19 C-10.08 17.8 -13.06 16.52 -16 15 C-14.96 6.15 -14.96 6.15 -13 3 C-8.81 0.03 -5.07 -1.9 0 0 Z M-6 7 C-5 9 -5 9 -5 9 Z " fill="#1B1D1C" transform="translate(998,51)"/>
    <path d="M0 0 C3.96 0 7.92 0 12 0 C12 0.33 12 0.66 12 1 C8.7 1 5.4 1 2 1 C2.76 1.74 3.53 2.48 4.31 3.25 C6.45 5.44 8.2 7.55 10 10 C10.56 10.54 11.11 11.07 11.69 11.62 C13 13 13 13 13 15 C13.66 15 14.32 15 15 15 C15.66 16.32 16.32 17.64 17 19 C16.34 19.33 15.68 19.66 15 20 C15 19.34 15 18.68 15 18 C14.01 18.99 13.02 19.98 12 21 C7.11 19.82 4.54 16.72 1.26 13.17 C0 11 0 11 0.37 8.38 C0.58 7.59 0.78 6.81 1 6 C0.05 3.85 0.05 3.85 -1 2 C-0.67 1.34 -0.34 0.68 0 0 Z " fill="#2A2D2C" transform="translate(437,82)"/>
    <path d="M0 0 C0.99 0.33 1.98 0.66 3 1 C2.99 1.64 2.98 2.29 2.96 2.95 C2.9 9.43 3.3 15.71 4.07 22.15 C3.99 25.46 3.23 26.62 1 29 C0.01 28.67 -0.98 28.34 -2 28 C-2 21.07 -2 14.14 -2 7 C-2.66 7 -3.32 7 -4 7 C-3.34 5.68 -2.68 4.36 -2 3 C-2 3.99 -2 4.98 -2 6 C-1.34 6 -0.68 6 0 6 C0 4.02 0 2.04 0 0 Z " fill="#1C1E1E" transform="translate(1080,7)"/>
    <path d="M0 0 C10.8 0.11 21.61 0.22 32.41 0.34 C37.43 0.39 42.45 0.45 47.46 0.5 C52.3 0.54 57.14 0.6 61.97 0.65 C63.82 0.67 65.67 0.69 67.52 0.71 C70.1 0.73 72.69 0.76 75.27 0.79 C76.04 0.8 76.81 0.81 77.61 0.81 C82.89 0.89 82.89 0.89 84 2 C84.09 3.56 84.11 5.13 84.1 6.69 C84.09 8.11 84.09 8.11 84.09 9.55 C84.08 11.04 84.08 11.04 84.06 12.56 C84.06 13.56 84.05 14.56 84.05 15.58 C84.04 18.06 84.02 20.53 84 23 C82.51 22.5 82.51 22.5 81 22 C81.01 20.71 81.02 19.42 81.04 18.1 C81.04 16.42 81.05 14.74 81.06 13.06 C81.08 11.79 81.08 11.79 81.09 10.49 C81.09 9.27 81.09 9.27 81.1 8.04 C81.11 6.91 81.11 6.91 81.11 5.77 C81.19 3.97 81.19 3.97 80 3 C77.54 2.88 75.1 2.81 72.63 2.79 C71.48 2.78 71.48 2.78 70.3 2.76 C67.74 2.73 65.18 2.71 62.62 2.68 C60.85 2.66 59.08 2.64 57.31 2.62 C52.64 2.57 47.98 2.52 43.31 2.47 C38.55 2.42 33.79 2.36 29.03 2.31 C19.69 2.2 10.34 2.1 1 2 C0.67 1.34 0.34 0.68 0 0 Z " fill="#040606" transform="translate(757,77)"/>
    <path d="M0 0 C3.38 2.43 4.78 3.75 5.52 7.93 C5.67 10.07 5.79 12.21 5.86 14.36 C5.82 16.98 5.82 16.98 7 19 C6.34 19.99 5.68 20.98 5 22 C4.01 22 3.02 22 2 22 C1.67 21.01 1.34 20.02 1 19 C0.34 18.67 -0.32 18.34 -1 18 C-1.03 15.19 -1.05 12.38 -1.06 9.56 C-1.07 8.76 -1.08 7.96 -1.09 7.13 C-1.1 5.09 -1.05 3.04 -1 1 C-0.67 0.67 -0.34 0.34 0 0 Z " fill="#1B1D1C" transform="translate(1078,100)"/>
    <path d="M0 0 C0.72 -0.01 1.45 -0.01 2.19 -0.02 C4.59 -0.03 6.99 -0.03 9.39 -0.03 C11.06 -0.03 12.73 -0.03 14.39 -0.04 C17.89 -0.05 21.39 -0.05 24.89 -0.04 C29.37 -0.04 33.85 -0.05 38.32 -0.08 C41.77 -0.09 45.21 -0.09 48.66 -0.09 C50.31 -0.09 51.96 -0.09 53.61 -0.1 C55.92 -0.12 58.23 -0.11 60.55 -0.1 C62.52 -0.1 62.52 -0.1 64.53 -0.1 C68.18 0.3 70.08 1.04 72.97 3.27 C73.89 5.54 73.89 5.54 74.28 7.96 C74.42 8.77 74.56 9.58 74.71 10.41 C74.79 11.03 74.88 11.64 74.97 12.27 C72.97 11.27 72.97 11.27 71.66 7.77 C71.1 6.62 70.54 5.46 69.97 4.27 C66 2.97 61.93 3.15 57.79 3.16 C57.09 3.16 56.38 3.16 55.66 3.16 C53.35 3.16 51.04 3.17 48.73 3.18 C47.12 3.18 45.52 3.18 43.91 3.18 C39.69 3.19 35.47 3.19 31.25 3.21 C26.94 3.22 22.63 3.22 18.32 3.23 C9.87 3.24 1.42 3.25 -7.03 3.27 C-7.36 3.93 -7.69 4.59 -8.03 5.27 C-8.36 4.28 -8.69 3.29 -9.03 2.27 C-6.14 -0.62 -4.05 0.01 0 0 Z " fill="#010303" transform="translate(14.032470703125,50.725341796875)"/>
    <path d="M0 0 C1.49 1.1 1.49 1.1 3 3 C3.26 5.88 3.26 5.88 3.11 9.36 C3.06 10.62 3.01 11.88 2.96 13.18 C2.89 14.52 2.82 15.85 2.75 17.19 C2.7 18.49 2.64 19.79 2.59 21.13 C2 34.55 2 34.55 1 40 C0.01 40.5 0.01 40.5 -1 41 C-1.02 36.29 -1.04 31.57 -1.05 26.86 C-1.06 25.26 -1.07 23.66 -1.08 22.05 C-1.09 19.74 -1.09 17.43 -1.1 15.12 C-1.1 14.41 -1.11 13.71 -1.11 12.98 C-1.11 8.54 -0.72 4.37 0 0 Z " fill="#1A1C1C" transform="translate(624,53)"/>
    <path d="M0 0 C0.33 0 0.66 0 1 0 C1 35.31 1 70.62 1 107 C0.67 107 0.34 107 0 107 C0 71.69 0 36.38 0 0 Z " fill="#FCFEFE" transform="translate(1104,12)"/>
    <path d="M0 0 C3.15 2.86 4.75 5.31 5.38 9.56 C5 12 5 12 3 13.81 C2.34 14.2 1.68 14.6 1 15 C-4.89 10.66 -4.89 10.66 -6 7 C-5.94 4.38 -5.94 4.38 -5 2 C-2.44 0.69 -2.44 0.69 0 0 Z " fill="#191B1B" transform="translate(246,19)"/>
    <path d="M0 0 C4 3.65 6.3 8.37 9 13 C9.43 13.69 9.87 14.39 10.31 15.11 C11.29 16.69 12.15 18.34 13 20 C12.67 20.99 12.34 21.98 12 23 C7.97 21.78 4.4 20.52 1 18 C0.19 15.81 0.19 15.81 0 14 C1.65 13.01 3.3 12.02 5 11 C4.64 10.37 4.28 9.75 3.91 9.1 C3.44 8.28 2.98 7.47 2.5 6.62 C1.8 5.41 1.8 5.41 1.09 4.16 C0 2 0 2 0 0 Z " fill="#131515" transform="translate(280,78)"/>
    <path d="M0 0 C0.99 0 1.98 0 3 0 C-0.29 14.2 -0.29 14.2 -3 19 C-5.95 20.7 -7.6 21 -11 21 C-9.99 18.15 -8.88 15.83 -7.19 13.31 C-4.38 9.06 -2.21 4.58 0 0 Z " fill="#171919" transform="translate(191,51)"/>
    <path d="M0 0 C42.57 0.5 42.57 0.5 86 1 C86 1.33 86 1.66 86 2 C75.1 2.13 64.2 2.26 53.3 2.39 C48.24 2.45 43.18 2.51 38.11 2.57 C33.23 2.63 28.35 2.69 23.47 2.75 C21.6 2.77 19.74 2.79 17.87 2.81 C15.27 2.85 12.66 2.88 10.05 2.91 C9.28 2.92 8.5 2.93 7.7 2.94 C4.8 2.97 1.9 3 -1 3 C-0.67 2.01 -0.34 1.02 0 0 Z " fill="#000202" transform="translate(754,100)"/>
    <path d="M0 0 C0.66 0.66 1.32 1.32 2 2 C-8 12 -18 22 -28 32 C-28.66 31.34 -29.32 30.68 -30 30 C-20.1 20.1 -10.2 10.2 0 0 Z " fill="#050707" transform="translate(611,19)"/>
    <path d="M0 0 C-3.94 1.31 -7.89 1.09 -11.98 1.02 C-12.78 1.01 -13.58 1 -14.41 0.99 C-17.05 0.96 -19.69 0.92 -22.33 0.88 C-24.16 0.85 -25.99 0.83 -27.83 0.81 C-32.65 0.74 -37.47 0.68 -42.29 0.61 C-47.21 0.53 -52.13 0.47 -57.05 0.4 C-66.7 0.28 -76.35 0.14 -86 0 C-86 -0.33 -86 -0.66 -86 -1 C-75.38 -1.18 -64.76 -1.34 -54.13 -1.49 C-49.2 -1.57 -44.27 -1.64 -39.34 -1.72 C-34.58 -1.8 -29.82 -1.87 -25.06 -1.94 C-23.24 -1.96 -21.43 -1.99 -19.61 -2.03 C-17.07 -2.07 -14.52 -2.11 -11.98 -2.14 C-11.23 -2.15 -10.48 -2.17 -9.7 -2.19 C-5.96 -2.22 -3.17 -2.09 0 0 Z " fill="#000202" transform="translate(860,53)"/>
    <path d="M0 0 C5.8 2.67 10.77 7.26 15 12 C15 12.66 15 13.32 15 14 C15.66 14 16.32 14 17 14 C18.62 15.37 18.62 15.37 20 17 C20 17.66 20 18.32 20 19 C20.99 19.33 21.98 19.66 23 20 C23 20.66 23 21.32 23 22 C23.99 22.33 24.98 22.66 26 23 C27.71 24.62 29.37 26.29 31 28 C32.14 29.08 32.14 29.08 33.31 30.19 C35 32 35 32 35 34 C36.32 34.33 37.64 34.66 39 35 C39 35.66 39 36.32 39 37 C35.37 35.74 33.01 34.39 30.31 31.67 C29.29 30.65 29.29 30.65 28.25 29.62 C27.53 28.88 26.81 28.15 26.07 27.4 C25.33 26.65 24.58 25.9 23.81 25.13 C22.23 23.55 20.66 21.97 19.1 20.38 C16.69 17.94 14.26 15.51 11.84 13.08 C10.31 11.54 8.79 10 7.26 8.46 C6.53 7.73 5.81 7 5.06 6.25 C4.39 5.57 3.73 4.9 3.04 4.2 C2.45 3.61 1.86 3.01 1.26 2.4 C0 1 0 1 0 0 Z " fill="#000202" transform="translate(539,15)"/>
    <path d="M0 0 C1.44 0.11 2.88 0.24 4.31 0.38 C5.51 0.48 5.51 0.48 6.74 0.59 C9 1 9 1 12 3 C12 3.66 12 4.32 12 5 C12.99 5.33 13.98 5.66 15 6 C10.26 8.37 4.02 8.48 -1 7 C-1.99 6.67 -2.98 6.34 -4 6 C-3.01 5.34 -2.02 4.68 -1 4 C-1.33 3.34 -1.66 2.68 -2 2 C-1.34 2 -0.68 2 0 2 C0 1.34 0 0.68 0 0 Z " fill="#1B1D1C" transform="translate(630,2)"/>
    <path d="M0 0 C0.66 0 1.32 0 2 0 C2 0.66 2 1.32 2 2 C2.66 2 3.32 2 4 2 C4.33 3.65 4.66 5.3 5 7 C0.73 10.05 0.73 10.05 -2.62 9.81 C-5 9 -5 9 -8 7 C-8.69 4.38 -8.69 4.38 -9 2 C-4.54 1.51 -4.54 1.51 0 1 C0 0.67 0 0.34 0 0 Z " fill="#151717" transform="translate(860,53)"/>
    <path d="M0 0 C0.66 0.33 1.32 0.66 2 1 C-2.97 6.84 -8.19 12.35 -13.62 17.75 C-14.36 18.49 -15.1 19.23 -15.86 20 C-19.42 23.56 -22.96 26.97 -27 30 C-27.66 29.67 -28.32 29.34 -29 29 C-19.43 19.43 -9.86 9.86 0 0 Z " fill="#252626" transform="translate(610,23)"/>
    <path d="M0 0 C0.33 0 0.66 0 1 0 C1 27.06 1 54.12 1 82 C0.67 82 0.34 82 0 82 C0 54.94 0 27.88 0 0 Z " fill="#191B1A" transform="translate(1075,16)"/>
    <path d="M0 0 C0.99 0.33 1.98 0.66 3 1 C2.34 2.98 1.68 4.96 1 7 C0.01 7 -0.98 7 -2 7 C-1.73 7.82 -1.46 8.65 -1.19 9.5 C-0.95 13.85 -2.06 15.83 -4.45 19.36 C-6 21 -6 21 -9.31 22 C-10.2 22 -11.09 22 -12 22 C-11.36 20.93 -10.72 19.86 -10.06 18.75 C-8.87 16.68 -8.02 15.07 -7.44 12.75 C-6.87 10.46 -5.68 9.61 -4 8 C-2.82 5.9 -2.82 5.9 -2 4 C-1.34 4 -0.68 4 0 4 C0 2.68 0 1.36 0 0 Z " fill="#181919" transform="translate(209,20)"/>
    <path d="M0 0 C2.16 4.33 2.34 7.57 2.41 12.27 C2.43 13.06 2.45 13.85 2.47 14.67 C2.53 17.2 2.58 19.72 2.62 22.25 C2.66 23.97 2.7 25.68 2.74 27.4 C2.84 31.6 2.92 35.8 3 40 C2.01 40 1.02 40 0 40 C0 26.8 0 13.6 0 0 Z " fill="#010303" transform="translate(937,11)"/>
    <path d="M0 0 C-0.26 3.21 -0.57 4.61 -3 6.81 C-7.06 8.42 -10.69 8.25 -15 8 C-13.68 7.67 -12.36 7.34 -11 7 C-10.94 6.05 -10.88 5.1 -10.81 4.12 C-10 1 -10 1 -7.75 -0.44 C-4.78 -1.04 -2.89 -0.83 0 0 Z " fill="#191B1A" transform="translate(788,119)"/>
    <path d="M0 0 C0.99 0.33 1.98 0.66 3 1 C2.67 1.33 2.34 1.66 2 2 C1.88 4.21 1.82 6.42 1.79 8.63 C1.78 9.32 1.77 10.02 1.76 10.73 C1.73 13.03 1.71 15.33 1.68 17.63 C1.66 19.22 1.64 20.81 1.62 22.4 C1.57 26.59 1.52 30.79 1.47 34.98 C1.42 39.26 1.36 43.53 1.31 47.81 C1.2 56.21 1.1 64.6 1 73 C0.67 73 0.34 73 0 73 C-0.15 63.63 -0.3 54.26 -0.44 44.89 C-0.51 40.54 -0.58 36.19 -0.65 31.84 C-0.72 27.64 -0.78 23.45 -0.84 19.25 C-0.87 17.65 -0.89 16.04 -0.92 14.44 C-0.96 12.2 -0.99 9.96 -1.02 7.72 C-1.04 6.45 -1.06 5.17 -1.08 3.85 C-1 1 -1 1 0 0 Z " fill="#000202" transform="translate(1252,8)"/>
    <path d="M0 0 C0 0.66 0 1.32 0 2 C0.99 2.33 1.98 2.66 3 3 C2.01 3 1.02 3 0 3 C0 3.66 0 4.32 0 5 C-2.76 6.8 -3.89 7.01 -7.25 6.62 C-8.61 6.32 -8.61 6.32 -10 6 C-10 5.34 -10 4.68 -10 4 C-10.99 4 -11.98 4 -13 4 C-13 3.34 -13 2.68 -13 2 C-11.02 1.67 -9.04 1.34 -7 1 C-7.66 0.34 -8.32 -0.32 -9 -1 C-5.8 -2.6 -3.28 -1.03 0 0 Z M-15 4 C-14.34 4 -13.68 4 -13 4 C-13 4.66 -13 5.32 -13 6 C-13.66 6 -14.32 6 -15 6 C-15 5.34 -15 4.68 -15 4 Z " fill="#212322" transform="translate(20,98)"/>
    <path d="M0 0 C3.88 1.75 3.88 1.75 5 4 C5.07 5.87 5.08 7.75 5.06 9.62 C5.05 10.63 5.04 11.63 5.04 12.66 C5.02 13.43 5.01 14.21 5 15 C1.18 13.73 0.14 12.39 -2 9 C-2.38 5.31 -2.38 5.31 -2 2 C-1.34 1.34 -0.68 0.68 0 0 Z " fill="#1B1D1D" transform="translate(1170,31)"/>
    <path d="M0 0 C5.75 3.75 5.75 3.75 8 6 C8.66 5.67 9.32 5.34 10 5 C10.35 5.84 10.69 6.68 11.05 7.54 C13.5 11.89 16.61 14.93 20.19 18.38 C20.84 19.02 21.5 19.66 22.17 20.32 C23.77 21.88 25.38 23.45 27 25 C24 25 24 25 21.81 22.94 C21.39 22.49 20.97 22.04 20.54 21.57 C18.06 19.04 15.3 16.82 12.57 14.55 C12.05 14.04 11.54 13.53 11 13 C11 12.34 11 11.68 11 11 C10.44 10.75 9.89 10.5 9.31 10.25 C4.52 7.66 1.62 5.3 0 0 Z " fill="#030505" transform="translate(1199,70)"/>
    <path d="M0 0 C3 1 3 1 4.2 2.89 C7.06 9.32 7.06 9.32 6.75 13.06 C6.5 13.7 6.25 14.34 6 15 C4.35 15 2.7 15 1 15 C-0.44 12.12 -0.09 9.58 -0.06 6.38 C-0.05 5.19 -0.04 4 -0.04 2.77 C-0.02 1.86 -0.01 0.94 0 0 Z " fill="#1B1D1D" transform="translate(338,101)"/>
    <path d="M0 0 C2.67 1.33 5.33 2.67 8 4 C8.7 4.25 9.4 4.5 10.12 4.75 C12.89 6.6 13.18 8.88 14 12 C11.83 12.31 11.83 12.31 9 12 C6.32 9.81 6.32 9.81 3.69 7 C2.8 6.07 1.92 5.14 1.01 4.19 C0.35 3.47 -0.32 2.74 -1 2 C-0.67 1.34 -0.34 0.68 0 0 Z " fill="#212423" transform="translate(991,71)"/>
    <path d="M0 0 C2.5 0.31 2.5 0.31 5 1 C5.33 1.66 5.66 2.32 6 3 C3.69 3 1.38 3 -1 3 C-3.11 7.28 -3.24 11.14 -3.12 15.81 C-3.11 16.85 -3.11 16.85 -3.1 17.91 C-3.07 19.61 -3.04 21.3 -3 23 C-3.99 22.67 -4.98 22.34 -6 22 C-6.14 19.44 -6.23 16.88 -6.31 14.31 C-6.35 13.59 -6.4 12.87 -6.44 12.13 C-6.54 7.86 -6.39 6.47 -3.54 3.04 C-2.7 2.37 -1.86 1.69 -1 1 C-0.67 0.67 -0.34 0.34 0 0 Z " fill="#090B0B" transform="translate(8,97)"/>
    <path d="M0 0 C0.33 0.66 0.66 1.32 1 2 C-0.1 5.31 -0.88 5.97 -3.5 8.13 C-8.25 12.16 -12.62 16.51 -17 20.94 C-17.77 21.72 -18.55 22.5 -19.35 23.3 C-21.23 25.2 -23.12 27.1 -25 29 C-25 26 -25 26 -22.62 23.36 C-21.57 22.34 -20.5 21.32 -19.44 20.31 C-18.33 19.24 -17.22 18.16 -16.12 17.08 C-15.58 16.55 -15.04 16.03 -14.49 15.49 C-12.01 13.01 -9.74 10.36 -7.46 7.69 C-5.42 5.33 -3.24 3.17 -1 1 C-0.67 0.67 -0.34 0.34 0 0 Z " fill="#2C2E2E" transform="translate(615,53)"/>
    <path d="M0 0 C1.15 0.95 2.29 1.91 3.44 2.88 C4.08 3.41 4.71 3.94 5.37 4.49 C7 6 7 6 8 8 C7.34 8 6.68 8 6 8 C6 8.66 6 9.32 6 10 C1.55 10.36 1.55 10.36 -0.81 8.81 C-2.37 6.44 -2.23 4.78 -2 2 C-1.34 2 -0.68 2 0 2 C0 1.34 0 0.68 0 0 Z " fill="#252726" transform="translate(1168,6)"/>
    <path d="M0 0 C0.33 0.99 0.66 1.98 1 3 C0.01 3.33 -0.98 3.66 -2 4 C-2 4.66 -2 5.32 -2 6 C-2.99 6.5 -2.99 6.5 -4 7 C-4.59 9.67 -4.59 9.67 -4.81 12.81 C-4.92 13.87 -5.03 14.93 -5.14 16.02 C-4.98 19.39 -4.27 20.58 -2 23 C-5.88 22.12 -5.88 22.12 -7 21 C-8.4 8.09 -8.4 8.09 -5.44 3.67 C-3.69 2.22 -2.02 1.04 0 0 Z " fill="#0A0C0C" transform="translate(9,3)"/>
    <path d="M0 0 C-0.39 2.86 -0.7 3.78 -3.06 5.56 C-3.7 6.04 -4.34 6.51 -5 7 C-5 7.99 -5 8.98 -5 10 C-7.97 10 -10.94 10 -14 10 C-14 9.67 -14 9.34 -14 9 C-12.02 8.67 -10.04 8.34 -8 8 C-7.81 6.3 -7.81 6.3 -7.62 4.56 C-7.42 3.39 -7.21 2.21 -7 1 C-4.54 -0.23 -2.72 -0.07 0 0 Z " fill="#121413" transform="translate(1274,118)"/>
    <path d="M0 0 C0.99 0 1.98 0 3 0 C3.33 0.66 3.66 1.32 4 2 C4.99 2.66 5.98 3.32 7 4 C9.58 6.1 10.68 7.03 12 10 C12.43 15.04 12.29 19.96 12 25 C11.34 24.67 10.68 24.34 10 24 C10.12 23.18 10.23 22.36 10.35 21.51 C10.79 16.1 11.06 12.46 7.77 7.95 C5.27 5.51 2.68 3.24 0 1 C0 0.67 0 0.34 0 0 Z " fill="#010303" transform="translate(1022,97)"/>
    <path d="M0 0 C4.29 0 8.58 0 13 0 C11 5 11 5 8.75 6.12 C4.55 5.93 2.97 3.9 0 1 C0 0.67 0 0.34 0 0 Z " fill="#181A19" transform="translate(72,55)"/>
    <path d="M0 0 C1.32 0.66 2.64 1.32 4 2 C3.28 2.56 2.56 3.11 1.81 3.69 C-0.98 5.98 -3.48 8.41 -6 11 C-7 12 -8 13 -9 14 C-9.99 13.67 -10.98 13.34 -12 13 C-8.2 8.44 -4.25 4.15 0 0 Z " fill="#0A0C0C" transform="translate(626,4)"/>
    <path d="M0 0 C0 3.96 0 7.92 0 12 C-0.99 12.5 -0.99 12.5 -2 13 C-2 12.34 -2 11.68 -2 11 C-2.66 11 -3.32 11 -4 11 C-5.35 3.53 -5.35 3.53 -3.69 1 C-2 0 -2 0 0 0 Z " fill="#1E2020" transform="translate(1032,12)"/>
    <path d="M0 0 C0.7 0.08 1.4 0.17 2.12 0.25 C3.03 0.36 3.94 0.46 4.88 0.56 C5.78 0.67 6.68 0.77 7.62 0.88 C10.02 1.2 10.02 1.2 12 0 C12.33 1.32 12.66 2.64 13 4 C13.66 4 14.32 4 15 4 C15 4.66 15 5.32 15 6 C16.65 6.66 18.3 7.32 20 8 C19.67 9.32 19.34 10.64 19 12 C18.54 11.45 18.08 10.89 17.6 10.32 C13.04 5.25 9.83 3.08 3 2.35 C2.34 2.24 1.68 2.12 1 2 C0.67 1.34 0.34 0.68 0 0 Z " fill="#0B0D0C" transform="translate(1157,2)"/>
    <path d="M0 0 C2.19 0.34 2.19 0.34 4 1 C3.28 1.55 2.57 2.1 1.83 2.67 C-1.07 5.05 -3.68 7.58 -6.31 10.25 C-7.2 11.14 -8.08 12.03 -8.99 12.95 C-9.65 13.63 -10.32 14.3 -11 15 C-11.33 14.01 -11.66 13.02 -12 12 C-10.1 9.96 -8.18 7.95 -6.25 5.94 C-5.71 5.36 -5.17 4.78 -4.62 4.18 C-3.02 2.53 -3.02 2.53 0 0 Z " fill="#070909" transform="translate(977,36)"/>
    <path d="M0 0 C4.42 1.35 6.34 3.26 9 7 C8.01 7 7.02 7 6 7 C8.64 9.64 11.28 12.28 14 15 C13.34 15.66 12.68 16.32 12 17 C12 16.34 12 15.68 12 15 C11.34 15 10.68 15 10 15 C8.31 13.39 8.31 13.39 6.44 11.25 C5.82 10.55 5.2 9.86 4.56 9.14 C2.98 6.98 2.55 5.57 2 3 C1.34 2.01 0.68 1.02 0 0 Z " fill="#040606" transform="translate(425,108)"/>
    <path d="M0 0 C0.99 0 1.98 0 3 0 C1.19 5.68 1.19 5.68 -0.12 7.88 C-1.51 11.23 -1.12 14.39 -1 18 C-1.99 18.33 -2.98 18.66 -4 19 C-4 15.37 -4 11.74 -4 8 C-3.34 8 -2.68 8 -2 8 C-1.86 7.24 -1.71 6.47 -1.56 5.69 C-1 3 -1 3 0 0 Z " fill="#080A0A" transform="translate(162,101)"/>
    <path d="M0 0 C-3.49 3.6 -7.11 6.83 -11 10 C-11.33 9.34 -11.66 8.68 -12 8 C-6 -2 -6 -2 0 0 Z " fill="#141616" transform="translate(616,52)"/>
    <path d="M0 0 C0.99 0.33 1.98 0.66 3 1 C2.55 1.44 2.1 1.88 1.64 2.33 C-0.39 4.32 -2.41 6.32 -4.44 8.31 C-5.14 9 -5.85 9.69 -6.58 10.4 C-7.59 11.4 -7.59 11.4 -8.62 12.43 C-9.24 13.04 -9.87 13.65 -10.51 14.28 C-12.23 16.04 -12.23 16.04 -13 19 C-15.06 19.69 -15.06 19.69 -17 20 C-15.65 16.98 -14.15 14.92 -11.78 12.62 C-11.16 12.01 -10.54 11.4 -9.9 10.77 C-9.25 10.14 -8.6 9.52 -7.94 8.88 C-6.65 7.62 -5.37 6.37 -4.09 5.12 C-3.52 4.57 -2.95 4.02 -2.37 3.45 C-0.89 2.03 -0.89 2.03 0 0 Z " fill="#535655" transform="translate(1026,26)"/>
    <path d="M0 0 C0.33 3.96 0.66 7.92 1 12 C-0.32 12.33 -1.64 12.66 -3 13 C-3 9.04 -3 5.08 -3 1 C-1 0 -1 0 0 0 Z " fill="#1B1D1D" transform="translate(342,21)"/>
    <path d="M0 0 C1.18 0.93 2.34 1.87 3.5 2.81 C4.15 3.33 4.8 3.86 5.47 4.39 C7.39 6.41 7 7.28 7 10 C7.99 11.48 7.99 11.48 9 13 C5.98 11.88 4.35 10.39 2.38 7.94 C0.33 4.99 0.33 4.99 -2 4 C-1.33 2.67 -0.67 1.33 0 0 Z " fill="#2F3130" transform="translate(410,87)"/>
    <path d="M0 0 C0.99 0 1.98 0 3 0 C3 0.66 3 1.32 3 2 C3.99 1.67 4.98 1.34 6 1 C6 1.66 6 2.32 6 3 C5.34 3 4.68 3 4 3 C4 3.66 4 4.32 4 5 C0.93 6.53 -2.27 6.1 -5.62 6.06 C-6.33 6.06 -7.04 6.05 -7.77 6.05 C-9.51 6.04 -11.26 6.02 -13 6 C-13 5.67 -13 5.34 -13 5 C-12.31 4.97 -11.63 4.95 -10.92 4.92 C-10.02 4.87 -9.12 4.81 -8.19 4.75 C-7.29 4.7 -6.4 4.66 -5.48 4.61 C-2.34 3.84 -1.8 2.58 0 0 Z " fill="#0E1010" transform="translate(1096,122)"/>
    <path d="M0 0 C0.5 0.48 1 0.96 1.52 1.46 C4.84 3.52 7.95 3.56 11.75 3.69 C12.8 3.74 12.8 3.74 13.86 3.79 C15.57 3.87 17.29 3.94 19 4 C19 4.66 19 5.32 19 6 C16.75 6.05 14.5 6.09 12.25 6.12 C11 6.15 9.74 6.17 8.45 6.2 C5.27 6.02 3.57 5.82 1 4 C0.25 1.88 0.25 1.88 0 0 Z " fill="#000202" transform="translate(5,120)"/>
    <path d="M0 0 C0.66 0.33 1.32 0.66 2 1 C1.34 2.32 0.68 3.64 0 5 C0.66 5 1.32 5 2 5 C2.33 4.01 2.66 3.02 3 2 C3.14 3.05 3.29 4.1 3.44 5.19 C3.88 8.15 4.38 11.07 5 14 C4.01 14.5 4.01 14.5 3 15 C3 13.68 3 12.36 3 11 C1.68 10.34 0.36 9.68 -1 9 C-1.1 2.85 -1.1 2.85 -1 1 C-0.67 0.67 -0.34 0.34 0 0 Z " fill="#1F2121" transform="translate(393,63)"/>
    <path d="M0 0 C4.01 2.18 6.86 4.7 10 8 C11.1 9.11 12.21 10.21 13.31 11.31 C14.2 12.2 15.09 13.09 16 14 C15.67 14.66 15.34 15.32 15 16 C10.93 13.04 7.85 9.64 4.65 5.8 C2.93 3.78 2.93 3.78 0 2 C0 1.34 0 0.68 0 0 Z " fill="#020504" transform="translate(1197,31)"/>
    <path d="M0 0 C0.66 0.33 1.32 0.66 2 1 C2 1.99 2 2.98 2 4 C2.66 4 3.32 4 4 4 C4 6.64 4 9.28 4 12 C3.34 11.67 2.68 11.34 2 11 C2 9.35 2 7.7 2 6 C0.79 5.81 0.79 5.81 -0.44 5.62 C-1.28 5.42 -2.13 5.21 -3 5 C-3.33 4.34 -3.66 3.68 -4 3 C-3 1 -3 1 0 0 Z " fill="#0F1110" transform="translate(863,7)"/>
    <path d="M0 0 C0.99 0.33 1.98 0.66 3 1 C4.19 4.56 4.19 4.56 5 8 C2.62 8.12 2.62 8.12 0 8 C-0.66 7.34 -1.32 6.68 -2 6 C-1.44 1.44 -1.44 1.44 0 0 Z " fill="#1A1C1C" transform="translate(277,76)"/>
    <path d="M0 0 C0.99 0 1.98 0 3 0 C2.77 1.46 2.52 2.92 2.25 4.38 C2.04 5.59 2.04 5.59 1.83 6.84 C1 9 1 9 -1.08 10.29 C-2.03 10.64 -2.03 10.64 -3 11 C-3.75 9.44 -3.75 9.44 -4 7 C-2.87 4.5 -1.48 2.33 0 0 Z " fill="#0B0D0D" transform="translate(191,51)"/>
    <path d="M0 0 C5.11 2.16 9.22 6.01 13 10 C12.67 10.99 12.34 11.98 12 13 C10.29 11.72 8.63 10.38 7 9 C7 8.34 7 7.68 7 7 C6.01 6.67 5.02 6.34 4 6 C4 5.34 4 4.68 4 4 C2.68 3.34 1.36 2.68 0 2 C0 1.34 0 0.68 0 0 Z " fill="#020404" transform="translate(992,106)"/>
    <path d="M0 0 C0.72 0.27 1.44 0.54 2.19 0.81 C0.94 2.81 0.94 2.81 -0.81 4.81 C-2.13 4.81 -3.45 4.81 -4.81 4.81 C-5.14 6.79 -5.47 8.77 -5.81 10.81 C-6.47 10.48 -7.13 10.15 -7.81 9.81 C-8.12 7.62 -8.12 7.62 -7.81 4.81 C-3.95 -0.26 -3.95 -0.26 0 0 Z " fill="#292B2B" transform="translate(754.8125,102.1875)"/>
    <path d="M0 0 C3.68 1.54 5.99 3.78 8.75 6.62 C9.55 7.44 10.35 8.26 11.17 9.1 C12.08 10.04 12.08 10.04 13 11 C12.34 11.66 11.68 12.32 11 13 C11 12.34 11 11.68 11 11 C10.34 11 9.68 11 9 11 C4.23 6.7 4.23 6.7 3 3 C2.01 2.67 1.02 2.34 0 2 C0 1.34 0 0.68 0 0 Z " fill="#020404" transform="translate(963,79)"/>
    <path d="M0 0 C0.33 0.66 0.66 1.32 1 2 C-6.11 10.63 -6.11 10.63 -11 13 C-9.46 9.32 -7.22 7.01 -4.38 4.25 C-3.56 3.45 -2.74 2.65 -1.9 1.83 C-0.96 0.92 -0.96 0.92 0 0 Z " fill="#2F3130" transform="translate(978,38)"/>
    <path d="M0 0 C2 1 2 1 2.82 3 C3.06 3.8 3.31 4.61 3.56 5.44 C4.6 8.79 4.6 8.79 6 12 C4.19 11.94 4.19 11.94 2 11 C-1.16 5.23 -1.16 5.23 -0.69 1.56 C-0.46 1.05 -0.23 0.53 0 0 Z " fill="#131515" transform="translate(747,112)"/>
    <path d="M0 0 C0.99 0.33 1.98 0.66 3 1 C3 2.98 3 4.96 3 7 C2.34 7 1.68 7 1 7 C1 10.96 1 14.92 1 19 C0.67 19 0.34 19 0 19 C0 12.73 0 6.46 0 0 Z " fill="#1B1D1D" transform="translate(842,80)"/>
    <path d="M0 0 C0.66 0.66 1.32 1.32 2 2 C0.33 3.67 -1.33 5.33 -3 7 C-3.72 7.76 -4.44 8.53 -5.19 9.31 C-7 11 -7 11 -9 11 C-7.59 7.78 -5.9 5.68 -3.38 3.25 C-2.74 2.64 -2.11 2.02 -1.46 1.39 C-0.74 0.7 -0.74 0.7 0 0 Z " fill="#070909" transform="translate(611,19)"/>
    <path d="M0 0 C2.31 0.66 4.62 1.32 7 2 C7 2.99 7 3.98 7 5 C7.66 5.66 8.32 6.32 9 7 C7.68 7.33 6.36 7.66 5 8 C2.53 4.04 2.53 4.04 0 0 Z " fill="#222423" transform="translate(1238,72)"/>
    <path d="M0 0 C0.99 0.66 1.98 1.32 3 2 C2.67 3.32 2.34 4.64 2 6 C0.35 6.33 -1.3 6.66 -3 7 C-3.33 5.02 -3.66 3.04 -4 1 C-3.67 1.66 -3.34 2.32 -3 3 C-2.34 3 -1.68 3 -1 3 C-0.67 2.01 -0.34 1.02 0 0 Z " fill="#1C1E1E" transform="translate(197,47)"/>
    <path d="M0 0 C0.99 0.33 1.98 0.66 3 1 C-1.75 6.88 -1.75 6.88 -4 8 C-4.66 8.99 -5.32 9.98 -6 11 C-6.33 10.01 -6.66 9.02 -7 8 C-5.57 5.96 -5.57 5.96 -3.56 3.81 C-2.9 3.1 -2.25 2.38 -1.57 1.64 C-1.05 1.1 -0.53 0.56 0 0 Z " fill="#0F1110" transform="translate(221,4)"/>
    <path d="M0 0 C0.99 0.33 1.98 0.66 3 1 C1.62 3 1.62 3 0 5 C-0.66 5 -1.32 5 -2 5 C-2 5.66 -2 6.32 -2 7 C-3.32 7.33 -4.64 7.66 -6 8 C-6.33 7.34 -6.66 6.68 -7 6 C-5.91 4.97 -4.8 3.95 -3.69 2.94 C-3.07 2.37 -2.46 1.8 -1.82 1.21 C-0.92 0.61 -0.92 0.61 0 0 Z " fill="#0F1111" transform="translate(986,29)"/>
    <path d="M0 0 C0.99 0.33 1.98 0.66 3 1 C2.34 2.98 1.68 4.96 1 7 C0.01 7 -0.98 7 -2 7 C-2.33 8.32 -2.66 9.64 -3 11 C-3.62 9.19 -3.62 9.19 -4 7 C-3.34 6.01 -2.68 5.02 -2 4 C-1.34 4 -0.68 4 0 4 C0 2.68 0 1.36 0 0 Z " fill="#080A0A" transform="translate(209,20)"/>
    <path d="M0 0 C0.33 0 0.66 0 1 0 C1 2.64 1 5.28 1 8 C0.67 8 0.34 8 0 8 C0 5.36 0 2.72 0 0 Z " fill="#FCFEFE" transform="translate(1035,111)"/>
    <path d="M0 0 C0.33 0 0.66 0 1 0 C1 2.64 1 5.28 1 8 C0.67 8 0.34 8 0 8 C0 5.36 0 2.72 0 0 Z " fill="#1B1D1D" transform="translate(1075,100)"/>
    <path d="M0 0 C0.33 0 0.66 0 1 0 C1 2.64 1 5.28 1 8 C0.67 8 0.34 8 0 8 C0 5.36 0 2.72 0 0 Z " fill="#FCFEFE" transform="translate(1035,13)"/>
    <path d="M0 0 C0.33 0 0.66 0 1 0 C1 1.98 1 3.96 1 6 C0.67 6 0.34 6 0 6 C0 4.02 0 2.04 0 0 Z " fill="#0C0F0E" transform="translate(745,53)"/>
    <path d="M0 0 C1 4 1 4 1 4 Z " fill="#191B1A" transform="translate(1075,110)"/>
    <path d="" fill="#FCFEFE" transform="translate(0,0)"/>
    <path d="" fill="#FCFEFE" transform="translate(0,0)"/>
    <path d="" fill="#000202" transform="translate(0,0)"/>
    <path d="" fill="#000202" transform="translate(0,0)"/>
    <path d="M0 0 C2 1 2 1 2 1 Z " fill="#000202" transform="translate(913,3)"/>
    <path d="" fill="#000202" transform="translate(0,0)"/>
    <path d="" fill="#000202" transform="translate(0,0)"/>
    <path d="" fill="#FAFCFC" transform="translate(0,0)"/>
    <path d="" fill="#FAFCFC" transform="translate(0,0)"/>
    <path d="" fill="#000202" transform="translate(0,0)"/>
    <path d="" fill="#191B1A" transform="translate(0,0)"/>
    <path d="" fill="#000202" transform="translate(0,0)"/>
    <path d="" fill="#000202" transform="translate(0,0)"/>
    <path d="" fill="#000202" transform="translate(0,0)"/>
    <path d="" fill="#000202" transform="translate(0,0)"/>
    <path d="" fill="#000202" transform="translate(0,0)"/>
    <path d="" fill="#000202" transform="translate(0,0)"/>
    <path d="" fill="#FAFCFC" transform="translate(0,0)"/>
    <path d="" fill="#000202" transform="translate(0,0)"/>
    <path d="" fill="#FCFEFE" transform="translate(0,0)"/>
    <path d="" fill="#FCFEFE" transform="translate(0,0)"/>
    <path d="" fill="#000202" transform="translate(0,0)"/>
    <path d="" fill="#000202" transform="translate(0,0)"/>
    <path d="" fill="#000202" transform="translate(0,0)"/>
    <path d="" fill="#000202" transform="translate(0,0)"/>
    <path d="" fill="#000202" transform="translate(0,0)"/>
    <path d="" fill="#1B1D1D" transform="translate(0,0)"/>
    <path d="" fill="#000202" transform="translate(0,0)"/>
    <path d="" fill="#000202" transform="translate(0,0)"/>
    <path d="" fill="#000202" transform="translate(0,0)"/>
    <path d="" fill="#000202" transform="translate(0,0)"/>
    <path d="" fill="#000202" transform="translate(0,0)"/>
    <path d="" fill="#000202" transform="translate(0,0)"/>
    <path d="" fill="#000202" transform="translate(0,0)"/>
    <path d="" fill="#000202" transform="translate(0,0)"/>
    <path d="" fill="#000202" transform="translate(0,0)"/>
    <path d="" fill="#000202" transform="translate(0,0)"/>
    <path d="" fill="#000202" transform="translate(0,0)"/>
    <path d="" fill="#000202" transform="translate(0,0)"/>
</svg>
